<?xml version="1.0" encoding="UTF-8" standalone="no"?><!DOCTYPE svg PUBLIC "-//W3C//DTD SVG 1.1//EN" "http://www.w3.org/Graphics/SVG/1.1/DTD/svg11.dtd"><svg width="100%" height="100%" viewBox="0 0 563 55" version="1.1" xmlns="http://www.w3.org/2000/svg" xmlns:xlink="http://www.w3.org/1999/xlink" xml:space="preserve" xmlns:serif="http://www.serif.com/" style="fill-rule:evenodd;clip-rule:evenodd;stroke-linecap:round;stroke-linejoin:round;stroke-miterlimit:1.5;"><path d="M30.408,37.195c-0.357,5.464 -1.829,9.472 -4.416,12.026c-2.587,2.553 -6.166,3.83 -10.738,3.83c-4.706,0 -8.419,-1.779 -11.139,-5.336c-2.721,-3.557 -4.092,-8.391 -4.115,-14.501l0,-10.571c0,-6.133 1.388,-10.939 4.165,-14.418c2.777,-3.479 6.573,-5.218 11.39,-5.218c4.549,0 8.073,1.305 10.571,3.914c2.498,2.609 3.925,6.612 4.282,12.009l-3.88,0c-0.357,-4.416 -1.399,-7.571 -3.128,-9.467c-1.728,-1.896 -4.343,-2.843 -7.844,-2.843c-3.68,0 -6.545,1.372 -8.597,4.115c-2.052,2.743 -3.078,6.724 -3.078,11.942l0,10.437c0,5.174 0.992,9.199 2.977,12.076c1.985,2.877 4.784,4.315 8.396,4.315c3.791,0 6.534,-0.948 8.229,-2.843c1.695,-1.896 2.71,-5.051 3.044,-9.467l3.88,0Z" style="fill:#fff;fill-rule:nonzero;"/><path d="M41.844,32.445c0,-5.218 1.182,-9.344 3.546,-12.377c2.364,-3.033 5.586,-4.549 9.668,-4.549c4.103,0 7.332,1.494 9.684,4.483c2.353,2.988 3.54,7.103 3.563,12.344l0,3.847c0,5.308 -1.188,9.445 -3.563,12.411c-2.375,2.966 -5.581,4.449 -9.617,4.449c-4.037,0 -7.237,-1.45 -9.601,-4.349c-2.364,-2.899 -3.591,-6.891 -3.68,-11.976l0,-4.282Zm3.747,3.747c0,4.17 0.842,7.449 2.526,9.835c1.684,2.386 4.02,3.579 7.008,3.579c3.055,0 5.391,-1.149 7.008,-3.446c1.617,-2.297 2.436,-5.586 2.459,-9.868l0,-3.847c0,-4.17 -0.847,-7.454 -2.542,-9.852c-1.695,-2.397 -4.025,-3.596 -6.991,-3.596c-2.877,0 -5.163,1.171 -6.858,3.512c-1.695,2.342 -2.565,5.564 -2.609,9.668l0,4.014Z" style="fill:#fff;fill-rule:nonzero;"/><path d="M84.525,16.187l0.1,5.754c1.07,-1.963 2.436,-3.524 4.098,-4.683c1.661,-1.16 3.551,-1.739 5.67,-1.739c6.311,0 9.545,4.204 9.701,12.611l0,24.253l-3.68,0l0,-23.851c-0.022,-3.234 -0.591,-5.62 -1.706,-7.159c-1.115,-1.539 -2.866,-2.308 -5.252,-2.308c-1.94,0 -3.685,0.73 -5.235,2.191c-1.55,1.461 -2.726,3.462 -3.529,6.005l0,25.122l-3.713,0l0,-36.195l3.546,0Z" style="fill:#fff;fill-rule:nonzero;"/><path d="M136.171,43.484c0,-1.561 -0.647,-2.927 -1.94,-4.098c-1.293,-1.171 -3.485,-2.453 -6.573,-3.847c-3.089,-1.394 -5.246,-2.553 -6.473,-3.479c-1.227,-0.926 -2.13,-1.935 -2.71,-3.027c-0.58,-1.093 -0.87,-2.386 -0.87,-3.88c0,-2.788 1.004,-5.09 3.011,-6.908c2.007,-1.818 4.605,-2.726 7.794,-2.726c3.434,0 6.177,0.97 8.229,2.91c2.052,1.94 3.078,4.505 3.078,7.694l-3.713,0c0,-2.052 -0.702,-3.752 -2.107,-5.101c-1.405,-1.349 -3.234,-2.024 -5.486,-2.024c-2.186,0 -3.919,0.558 -5.202,1.673c-1.282,1.115 -1.923,2.565 -1.923,4.349c0,1.45 0.491,2.632 1.472,3.546c0.981,0.914 3.1,2.152 6.356,3.713c3.367,1.472 5.687,2.687 6.958,3.646c1.271,0.959 2.23,2.024 2.877,3.195c0.647,1.171 0.97,2.559 0.97,4.165c0,2.988 -1.037,5.363 -3.111,7.125c-2.074,1.762 -4.806,2.643 -8.196,2.643c-3.591,0 -6.495,-0.981 -8.714,-2.944c-2.219,-1.963 -3.328,-4.494 -3.328,-7.594l3.747,0c0.112,2.252 0.864,3.998 2.258,5.235c1.394,1.238 3.407,1.857 6.038,1.857c2.275,0 4.103,-0.558 5.486,-1.673c1.383,-1.115 2.074,-2.598 2.074,-4.449Z" style="fill:#fff;fill-rule:nonzero;"/><path d="M158.345,6.954l0,9.233l6.189,0l0,3.345l-6.189,0l0,24.052c0,1.985 0.295,3.462 0.886,4.432c0.591,0.97 1.578,1.455 2.96,1.455c0.602,0 1.494,-0.112 2.676,-0.335l0.1,3.345c-0.847,0.379 -2.063,0.569 -3.646,0.569c-4.349,0 -6.579,-2.988 -6.69,-8.965l0,-24.554l-5.586,0l0,-3.345l5.586,0l0,-9.233l3.713,0Z" style="fill:#fff;fill-rule:nonzero;"/><path d="M188.682,53.051c-4.26,0 -7.594,-1.394 -10.002,-4.181c-2.409,-2.788 -3.635,-6.757 -3.68,-11.909l0,-4.416c0,-5.308 1.16,-9.472 3.479,-12.494c2.319,-3.022 5.508,-4.533 9.567,-4.533c3.925,0 6.919,1.282 8.982,3.847c2.063,2.565 3.117,6.49 3.161,11.775l0,3.479l-21.51,0l0,2.041c0,4.148 0.886,7.348 2.659,9.601c1.773,2.252 4.276,3.379 7.51,3.379c3.568,0 6.456,-1.305 8.664,-3.914l1.94,2.475c-2.364,3.234 -5.954,4.851 -10.772,4.851Zm-0.636,-34.054c-2.921,0 -5.168,1.031 -6.741,3.094c-1.572,2.063 -2.436,5.079 -2.593,9.049l17.763,0l0,-0.97c-0.178,-7.449 -2.988,-11.173 -8.43,-11.173Z" style="fill:#fff;fill-rule:nonzero;"/><rect x="212.596" y="1" width="3.747" height="51.382" style="fill:#fff;fill-rule:nonzero;"/><rect x="231.125" y="1" width="3.747" height="51.382" style="fill:#fff;fill-rule:nonzero;"/><path d="M268.386,52.382c-0.335,-1.16 -0.558,-2.832 -0.669,-5.018c-1.115,1.806 -2.548,3.206 -4.299,4.198c-1.751,0.992 -3.652,1.489 -5.704,1.489c-3.122,0 -5.553,-0.881 -7.293,-2.643c-1.739,-1.762 -2.609,-4.271 -2.609,-7.527c0,-3.546 1.21,-6.356 3.63,-8.43c2.42,-2.074 5.759,-3.122 10.019,-3.144l6.222,0l0,-5.051c0,-2.587 -0.641,-4.444 -1.923,-5.57c-1.282,-1.126 -3.161,-1.689 -5.637,-1.689c-2.297,0 -4.181,0.669 -5.653,2.007c-1.472,1.338 -2.208,3.066 -2.208,5.185l-3.713,-0.033c0,-2.966 1.115,-5.481 3.345,-7.543c2.23,-2.063 5.029,-3.094 8.396,-3.094c3.635,0 6.389,0.914 8.263,2.743c1.873,1.829 2.81,4.494 2.81,7.995l0,17.763c0,3.546 0.323,6.2 0.97,7.962l0,0.401l-3.947,0Zm-10.203,-2.91c2.186,0 4.12,-0.569 5.804,-1.706c1.684,-1.137 2.916,-2.654 3.696,-4.549l0,-8.798l-5.888,0c-3.39,0.045 -5.943,0.797 -7.66,2.258c-1.717,1.461 -2.576,3.429 -2.576,5.904c0,4.594 2.208,6.891 6.623,6.891Z" style="fill:#fff;fill-rule:nonzero;"/><path d="M291.196,6.954l0,9.233l6.189,0l0,3.345l-6.189,0l0,24.052c0,1.985 0.295,3.462 0.886,4.432c0.591,0.97 1.578,1.455 2.96,1.455c0.602,0 1.494,-0.112 2.676,-0.335l0.1,3.345c-0.847,0.379 -2.063,0.569 -3.646,0.569c-4.349,0 -6.579,-2.988 -6.69,-8.965l0,-24.554l-5.586,0l0,-3.345l5.586,0l0,-9.233l3.713,0Z" style="fill:#fff;fill-rule:nonzero;"/><path d="M313.739,52.382l-3.747,0l0,-36.195l3.747,0l0,36.195Zm-4.282,-46.632c0,-0.758 0.212,-1.405 0.636,-1.94c0.424,-0.535 1.026,-0.803 1.806,-0.803c0.781,0 1.388,0.268 1.823,0.803c0.435,0.535 0.652,1.182 0.652,1.94c0,0.758 -0.217,1.399 -0.652,1.923c-0.435,0.524 -1.043,0.786 -1.823,0.786c-0.781,0 -1.383,-0.262 -1.806,-0.786c-0.424,-0.524 -0.636,-1.165 -0.636,-1.923Z" style="fill:#fff;fill-rule:nonzero;"/><path d="M326.714,32.445c0,-5.218 1.182,-9.344 3.546,-12.377c2.364,-3.033 5.586,-4.549 9.668,-4.549c4.103,0 7.332,1.494 9.684,4.483c2.353,2.988 3.54,7.103 3.563,12.344l0,3.847c0,5.308 -1.188,9.445 -3.563,12.411c-2.375,2.966 -5.581,4.449 -9.617,4.449c-4.037,0 -7.237,-1.45 -9.601,-4.349c-2.364,-2.899 -3.591,-6.891 -3.68,-11.976l0,-4.282Zm3.747,3.747c0,4.17 0.842,7.449 2.526,9.835c1.684,2.386 4.02,3.579 7.008,3.579c3.055,0 5.391,-1.149 7.008,-3.446c1.617,-2.297 2.436,-5.586 2.459,-9.868l0,-3.847c0,-4.17 -0.847,-7.454 -2.542,-9.852c-1.695,-2.397 -4.025,-3.596 -6.991,-3.596c-2.877,0 -5.163,1.171 -6.858,3.512c-1.695,2.342 -2.565,5.564 -2.609,9.668l0,4.014Z" style="fill:#fff;fill-rule:nonzero;"/><path d="M369.395,16.187l0.1,5.754c1.07,-1.963 2.436,-3.524 4.098,-4.683c1.661,-1.16 3.551,-1.739 5.67,-1.739c6.311,0 9.545,4.204 9.701,12.611l0,24.253l-3.68,0l0,-23.851c-0.022,-3.234 -0.591,-5.62 -1.706,-7.159c-1.115,-1.539 -2.866,-2.308 -5.252,-2.308c-1.94,0 -3.685,0.73 -5.235,2.191c-1.55,1.461 -2.726,3.462 -3.529,6.005l0,25.122l-3.713,0l0,-36.195l3.546,0Z" style="fill:#fff;fill-rule:nonzero;"/><path d="M423.244,52.382l0,-48.706l11.474,0c5.285,0 9.467,1.689 12.544,5.068c3.078,3.379 4.661,8.034 4.75,13.966l0,10.203c0,6.111 -1.556,10.883 -4.667,14.317c-3.111,3.434 -7.477,5.152 -13.096,5.152l-11.006,0Zm3.814,-45.093l0,41.547l7.393,0c4.349,0 7.716,-1.344 10.102,-4.031c2.386,-2.687 3.613,-6.529 3.68,-11.524l0,-10.203c0,-4.995 -1.165,-8.876 -3.496,-11.641c-2.33,-2.765 -5.704,-4.148 -10.119,-4.148l-7.56,0Z" style="fill:#fff;fill-rule:nonzero;"/><path d="M479.774,19.666c-0.892,-0.156 -1.673,-0.234 -2.342,-0.234c-2.052,0 -3.774,0.702 -5.168,2.107c-1.394,1.405 -2.381,3.356 -2.96,5.854l0,24.989l-3.713,0l0,-36.195l3.646,0l0.067,5.419c1.762,-4.059 4.527,-6.088 8.296,-6.088c0.981,0 1.728,0.145 2.241,0.435l-0.067,3.713Z" style="fill:#fff;fill-rule:nonzero;"/><path d="M508.204,52.382c-0.335,-1.16 -0.558,-2.832 -0.669,-5.018c-1.115,1.806 -2.548,3.206 -4.299,4.198c-1.751,0.992 -3.652,1.489 -5.704,1.489c-3.122,0 -5.553,-0.881 -7.293,-2.643c-1.739,-1.762 -2.609,-4.271 -2.609,-7.527c0,-3.546 1.21,-6.356 3.63,-8.43c2.42,-2.074 5.759,-3.122 10.019,-3.144l6.222,0l0,-5.051c0,-2.587 -0.641,-4.444 -1.923,-5.57c-1.282,-1.126 -3.161,-1.689 -5.637,-1.689c-2.297,0 -4.181,0.669 -5.653,2.007c-1.472,1.338 -2.208,3.066 -2.208,5.185l-3.713,-0.033c0,-2.966 1.115,-5.481 3.345,-7.543c2.23,-2.063 5.029,-3.094 8.396,-3.094c3.635,0 6.389,0.914 8.263,2.743c1.873,1.829 2.81,4.494 2.81,7.995l0,17.763c0,3.546 0.323,6.2 0.97,7.962l0,0.401l-3.947,0Zm-10.203,-2.91c2.186,0 4.12,-0.569 5.804,-1.706c1.684,-1.137 2.916,-2.654 3.696,-4.549l0,-8.798l-5.888,0c-3.39,0.045 -5.943,0.797 -7.66,2.258c-1.717,1.461 -2.576,3.429 -2.576,5.904c0,4.594 2.208,6.891 6.623,6.891Z" style="fill:#fff;fill-rule:nonzero;"/><path d="M533.055,44.153l0.301,2.007l0.401,-2.174l7.393,-27.799l3.111,0l7.326,27.564l0.535,2.843l0.435,-2.542l6.256,-27.865l3.814,0l-8.865,36.195l-3.111,0l-7.861,-28.769l-0.167,-0.87l-0.134,0.903l-7.727,28.735l-3.144,0l-8.798,-36.195l3.78,0l6.456,27.966Z" style="fill:#fff;fill-rule:nonzero;"/><g><circle cx="214.313" cy="50.051" r="3" style="fill:#fff;stroke:#fff;stroke-width:2px;"/><circle cx="214.313" cy="4" r="3" style="fill:#fff;stroke:#fff;stroke-width:2px;"/><circle cx="233.313" cy="4" r="3" style="fill:#fff;stroke:#fff;stroke-width:2px;"/><circle cx="233.313" cy="50.051" r="3" style="fill:#fff;stroke:#fff;stroke-width:2px;"/></g></svg>