<?xml version="1.0" encoding="UTF-8"?>
<svg id="Layer_1" xmlns="http://www.w3.org/2000/svg" xmlns:serif="http://www.serif.com/" version="1.1" viewBox="0 0 595.3 841.9">
  <!-- Generator: Adobe Illustrator 30.2.1, SVG Export Plug-In . SVG Version: 2.1.1 Build 1)  -->
  <defs>
    <style>
      .st0 {
        fill: none;
      }

      .st1 {
        fill: #fff;
      }
    </style>
  </defs>
  <g>
    <g id="Artboard1">
      <rect class="st0" y="341.4" width="595.3" height="158.3"/>
    </g>
    <g>
      <g>
        <path class="st1" d="M66.4,447.4l.8-2.9c5.3-28.8,10.1-57.7,12.2-87,1.3-5.2,14.7-7.4,16.7-2.6.8,2-1.2,8.9-1.6,11.4-6.1,35.6-10.3,71.2-14.7,107-.4,3.7-1.5,15.2-3.6,17.5-4.8,5.3-11.1,3.6-14-2.5l-29.8-100.6-14.3,103.6c-3.9,9-15.9,11.1-16.4-1.2,7.7-37.6,12.5-75.7,19.5-113.4,1.2-6.6,2.3-14.6,4.1-21,.9-3.2,2.3-5.6,5.9-6,7.8-.8,10.2,7.1,11.9,13.1,5.1,17.3,8.5,35.5,13.4,52.9,2.9,10.6,6.6,21,9.8,31.6h0Z"/>
        <path class="st1" d="M182.7,462c-3.4,10.3-4.4,21.1-6.8,31.6-.3,1.2-.6,3.3-1.1,4.2-2.1,3.7-12.9,3.6-12.3-2.1l25-141.6c2.3-10.9,12.5-13.5,18.4-3.3,1.8,3,2.5,6.8,3.3,10.2,4.1,17.1,6.6,36.2,9.6,53.7,4.4,25.7,8.5,51.6,12.3,77.4-2.8,6.9-12.1,6.8-14.1-.7l-5-32.6-28.2,1.4-1.1,1.9ZM210,446.7l-13.2-71.2-12.2,74.2,25.4-3Z"/>
        <path class="st1" d="M126.7,363.3c-2.7,17.8-2.5,35.9-4.2,53.8,7.3,1.5,14.9-.5,22.3-.1,4.4.2,9.2,1.7,10.8,6.3,1.2,3.5,0,7.4-3.9,8-5.1.8-11,0-16.1,0-4.1,0-8.1.3-12.2.3-.7,0-1.9-.6-2.3,0l-5.8,45.6c3.3,0,6.5.2,9.7.2,5.9-.2,20.9-2.5,24,4.2,1.1,2.3.5,4.5-1.2,6.4-3.1,3.4-5.7,2.4-9.7,2.7-10.5.8-25.1,2.5-35.1-.8-2.8-.9-3.8-1.6-3.8-4.8,0-19.7,6.3-42.6,8.6-62.5,2.3-20,2.4-39.9,5.1-59.7.3-2.5,1-9.4,2.3-11,.3-.4.8-.8,1.3-1,1.6,0,3.6-.5,5.1-.6,7.6-.4,17.5-.9,25-.5,2.7.1,9.4,1,10.7,3.6s-.9,9.3-3.9,10c-3.7.8-10.4-.2-14.4-.3-4,0-8.2,0-12.4.3h0Z"/>
        <path class="st1" d="M251.5,346c2.6-.4,7.5-.3,9.6,1.4,2.8,2.3,2.4,7.8,2.3,11.1-.7,20.2-1.5,40.4-2,60.7-.5,20.2-.4,40.4-.6,60.6.5,2.2,3.9,1.7,5.7,1.6,8.7-.4,17.3-3.5,26-2.6,7.6.7,10,7.9,2.8,11.4l-46.3,6.1c-2,.4-4.1-.5-4.6-2.6-.6-2.5-.2-9.1-.2-12.1.6-32.2,3.1-64.4,4-96.6.3-11.2-1.6-22.7-1-33.3.2-3.2.3-5,4.2-5.6h0Z"/>
      </g>
      <g>
        <path class="st1" d="M569.8,449c.6,0,.3-.7.2-1.1-4.6-29-5.9-60.1-11.2-89.5-.6-10.3,12.7-13.7,15.3-.5.5,2.7.3,6.3.6,9.2,4.1,33.3,7.8,69.5,13.5,102.6,1.1,6.4,3.6,14.5,3.9,20.7.4,8.8-9,8.9-13.4,3.3l-56.6-104.3,13.8,105.3c-2.1,12.3-14,10.3-16.2-1.2-1.9-10.3-1.7-22-2.7-32.5-2.6-28.1-6.4-56.1-8.8-84.2-.5-6.2-1.7-14.5-1.6-20.4,0-7.7,8.2-6.3,12.3-2.5,3.5,3.2,9.8,16.7,12.3,21.6,6.5,12.7,12.5,25.6,19.1,38.2,6.2,11.9,13.1,23.5,19.5,35.2h0Z"/>
        <path class="st1" d="M426.8,349.6c7.6-.1,8.7,4.6,9.3,10.5,3.3,33.3-3.8,72.5,5.8,104.7,2.8,9.5,11.5,24.8,23.2,16,12.6-9.6,12.6-44,13.2-58.7.7-17.2,1.4-35.2-.3-52.4-.5-4.9-2.9-11.2-1.9-15.6.6-2.6,5.4-3.6,7.6-3.5,8.9.5,8.8,5,9.4,11.9,1.6,18.8,1.1,38.1.6,57-.6,26.3,1.4,84.7-40.3,76.6-27.6-5.4-28.5-37.6-30.3-60.1-1.9-23.5-2.9-47-3.3-70.6,0-4.5-.8-6.2-.4-10.7.3-3.6,4-5,7.2-5h0Z"/>
        <path class="st1" d="M369,357.9l4,34.9h28.2c5.6,1.5,9,9.6,1.9,11.8-8.2,2.5-21.7-.1-29.6.8-2.2.3-1.9,1.3-1.8,3.1.5,11.6,2.5,23.9,3.3,35.6.5,8.1.6,16.3,1,24.4.3,6.7,1.3,14.5.7,21.1-.5,5.4-6.6,7.1-11,5-2.8-1.3-3.1-3.3-3.5-6.1-1.8-12.5-.8-26.5-1.3-39.2-1.3-29.7-7-59.6-7.9-89,0-2.6-.4-9.2.8-11.1,2.5-3.9,13.6-2.7,17.9-2.9,6.6-.4,26.1-2.8,31.4,1,2,1.4,3.8,5.2,2.6,7.6-1.7,3.1-16.1,2.3-19.2,3h-17.3Z"/>
      </g>
    </g>
  </g>
  <g id="pointer">
    <path class="st1" d="M343,464.7c-4.1-.3-4.4,3-4.6,6.1,0,.2-.5.1-.4,0-.4-3,1.6-7.3-3.2-8.3-4.7-.6-4.8,4.1-5.5,6.2-1.5-4.3,1.9-19.2-7.5-15.7-4.8,3.5,4.1,28.7-5.5,19.8-3.5-6-16.1-2.5-7.8,3.1,8,3.8,6.6,14.9,15,17.4,19.7,9,29.6-25.8,19.4-28.5Z"/>
    <path class="st1" d="M347.7,468c0-4.2-5.2-5.6-8.4-3.6-.7-3.4-7.8-4.5-9.7-1.5,0-4.3.8-10.8-4.6-12-8-1.6-6.2,9.8-5.9,14,0,1.4,1.5,11.7-1.8,7.5-1.7-2.7-4.9-4.8-8.3-4.2-3.9.6-5.5,4.1-3,7.2,1.4,1.4,3.6,2.1,5.1,3.5,3.5,2.6,3.3,7.1,5.3,10.6,5.1,7.8,19.1,8.5,25.4,2,5.8-6.4,6.3-15.4,6.1-23.5ZM345.7,469.4c0,.8,0,1.7,0,2.4-.1,3.2-.6,6.4-1.5,9.4s-2.1,5.6-4.1,7.8-4.5,3.6-7.3,4-5.8.1-8.4-.7-4.9-2.5-6.1-5.1-1.1-2.9-1.7-4.3-1.3-2.4-2.1-3.5c-1.6-2-3.5-3.6-5.7-4.9-.8-.5-1.7-1.2-1.6-2.3s1.1-1.7,2.1-1.9c1.2-.3,2.5,0,3.6.7,2,1,3.1,2.9,4.9,4.1s1.6.8,2.5.4,1.7-1.6,1.9-2.8,0-2.9,0-4.3-.1-3.3-.2-4.9-.3-3.2-.4-4.9-.1-2.6.4-3.8,1.1-1.6,2.1-1.7,2.1.6,2.5,1.6c1.2,2.7,1,6,1,8.8s-.1,3.2.1,4.7,2,1.4,2.4.2.2-1,.3-1.4.2-1.2.5-1.8c.5-1.2,1.4-2.2,2.7-2.3s2.4.4,2.9,1.5.6,2.8.6,4.2-.3,1.8.1,2.6.7.7,1.2.6c.7,0,1.1-.6,1.2-1.2.2-1.2,0-2.4.4-3.5s1.7-1.6,2.8-1.6,2.2.6,2.6,1.8.3,1.2.3,1.8Z"/>
  </g>
</svg>