<?xml version="1.0" encoding="UTF-8" standalone="no"?>
<!DOCTYPE svg PUBLIC "-//W3C//DTD SVG 1.1//EN" "http://www.w3.org/Graphics/SVG/1.1/DTD/svg11.dtd">
<svg width="100%" height="100%" viewBox="0 0 198 140" version="1.1" xmlns="http://www.w3.org/2000/svg" xmlns:xlink="http://www.w3.org/1999/xlink" xml:space="preserve" xmlns:serif="http://www.serif.com/" style="fill-rule:evenodd;clip-rule:evenodd;stroke-linejoin:round;stroke-miterlimit:2;">
    <g transform="matrix(1,0,0,1,0,0.000396)">
        <g transform="matrix(1,0,0,1,-771,-1317)">
            <g transform="matrix(0.324183,0,0,0.927152,542.126839,162.695364)">
                <path d="M713.586,1332.611C709.377,1332.587 706,1331.388 706,1329.916C706,1325.273 706,1315.727 706,1311.084C706,1309.612 709.377,1308.413 713.586,1308.389C762.813,1308.119 1036.585,1306.613 1089.404,1306.323C1094.298,1306.296 1098.225,1304.901 1098.225,1303.189C1098.225,1293.917 1098.225,1266.101 1098.225,1252.565C1098.225,1251.298 1100.408,1250.155 1103.757,1249.67C1107.106,1249.185 1110.961,1249.453 1113.524,1250.349C1156.764,1265.469 1278.633,1308.08 1307.816,1318.284C1309.497,1318.872 1310.441,1319.669 1310.441,1320.5C1310.441,1321.331 1309.497,1322.128 1307.816,1322.716C1278.633,1332.92 1156.764,1375.531 1113.524,1390.651C1110.961,1391.547 1107.106,1391.815 1103.757,1391.33C1100.408,1390.845 1098.225,1389.702 1098.225,1388.435C1098.225,1374.899 1098.225,1347.083 1098.225,1337.811C1098.225,1336.099 1094.298,1334.704 1089.404,1334.677C1036.585,1334.387 762.813,1332.881 713.586,1332.611Z"/>
            </g>
        </g>
    </g>
</svg>
