<?xml version="1.0" encoding="UTF-8" standalone="no"?><!DOCTYPE svg PUBLIC "-//W3C//DTD SVG 1.1//EN" "http://www.w3.org/Graphics/SVG/1.1/DTD/svg11.dtd"><svg width="100%" height="100%" viewBox="0 0 740 32" version="1.1" xmlns="http://www.w3.org/2000/svg" xmlns:xlink="http://www.w3.org/1999/xlink" xml:space="preserve" xmlns:serif="http://www.serif.com/" style="fill-rule:evenodd;clip-rule:evenodd;stroke-linecap:square;stroke-miterlimit:1.5;"><rect id="Artboard1" x="0" y="0" width="740" height="32" style="fill:none;"/><clipPath id="_clip1"><rect x="0" y="0" width="740" height="32"/></clipPath><g clip-path="url(#_clip1)"><g><g><g><path d="M1.562,1.565c17.554,0.114 35.107,4.958 52.661,14.192" style="fill:none;stroke:#d59b76;stroke-width:3.13px;"/><path d="M54.223,15.756c35.107,19.377 70.214,18.468 105.321,0" style="fill:none;stroke:#d59b76;stroke-width:3.13px;stroke-linecap:round;stroke-linejoin:round;"/></g><g><path d="M159.545,15.756c35.107,-19.377 70.214,-18.468 105.321,0" style="fill:none;stroke:#d59b76;stroke-width:3.13px;stroke-linecap:round;stroke-linejoin:round;"/><path d="M264.866,15.756c35.107,19.377 70.214,18.468 105.321,0" style="fill:none;stroke:#d59b76;stroke-width:3.13px;stroke-linecap:round;stroke-linejoin:round;"/></g><g><path d="M370.188,15.756c35.107,-19.377 70.214,-18.468 105.321,0" style="fill:none;stroke:#d59b76;stroke-width:3.13px;stroke-linecap:round;stroke-linejoin:round;"/><path d="M475.509,15.756c35.107,19.377 70.214,18.468 105.321,0" style="fill:none;stroke:#d59b76;stroke-width:3.13px;stroke-linecap:round;stroke-linejoin:round;"/></g><g><path d="M580.83,15.756c35.107,-19.377 70.214,-18.468 105.321,0" style="fill:none;stroke:#d59b76;stroke-width:3.13px;stroke-linecap:round;stroke-linejoin:round;"/><path d="M686.152,15.756c17.554,9.688 35.107,14.305 52.661,14.192" style="fill:none;stroke:#d59b76;stroke-width:3.13px;stroke-linejoin:round;"/></g></g><g><g><path d="M1.562,29.948c17.554,-0.114 35.107,-4.958 52.661,-14.192" style="fill:none;stroke:#d58076;stroke-width:3.13px;stroke-linejoin:round;"/><path d="M54.223,15.756c35.107,-19.377 70.214,-18.468 105.321,0" style="fill:none;stroke:#d58076;stroke-width:3.13px;stroke-linecap:round;stroke-linejoin:round;"/></g><g><path d="M159.545,15.756c35.107,19.377 70.214,18.468 105.321,0" style="fill:none;stroke:#d58076;stroke-width:3.13px;stroke-linecap:round;stroke-linejoin:round;"/><path d="M264.866,15.756c35.107,-19.377 70.214,-18.468 105.321,0" style="fill:none;stroke:#d58076;stroke-width:3.13px;stroke-linecap:round;stroke-linejoin:round;"/></g><g><path d="M370.188,15.756c35.107,19.377 70.214,18.468 105.321,0" style="fill:none;stroke:#d58076;stroke-width:3.13px;stroke-linecap:round;stroke-linejoin:round;"/><path d="M475.509,15.756c35.107,-19.377 70.214,-18.468 105.321,0" style="fill:none;stroke:#d58076;stroke-width:3.13px;stroke-linecap:round;stroke-linejoin:round;"/></g><g><path d="M580.83,15.756c35.107,19.377 70.214,18.468 105.321,0" style="fill:none;stroke:#d58076;stroke-width:3.13px;stroke-linecap:round;stroke-linejoin:round;"/><path d="M686.152,15.756c17.554,-9.688 35.107,-14.305 52.661,-14.192" style="fill:none;stroke:#d58076;stroke-width:3.13px;stroke-linejoin:round;"/></g></g></g></g></svg>