<?xml version="1.0" encoding="UTF-8" standalone="no"?>
<!DOCTYPE svg PUBLIC "-//W3C//DTD SVG 1.1//EN" "http://www.w3.org/Graphics/SVG/1.1/DTD/svg11.dtd">
<svg width="100%" height="100%" viewBox="0 0 50 50" version="1.1" xmlns="http://www.w3.org/2000/svg" xmlns:xlink="http://www.w3.org/1999/xlink" xml:space="preserve" xmlns:serif="http://www.serif.com/" style="fill-rule:evenodd;clip-rule:evenodd;stroke-linejoin:round;stroke-miterlimit:2;">
    <g transform="matrix(1,0,0,1,-60.059854,0)">
        <g id="Artboard1" transform="matrix(1,0,0,1,60.059854,0)">
            <rect x="0" y="0" width="50" height="50" style="fill:none;"/>
            <g transform="matrix(0.718514,0.002048,-0.002048,0.718514,1.714167,2.439766)">
                <path d="M46.289,1.098C45.512,1.098 44.734,1.379 44.168,1.945L2.445,43.668C1.277,44.84 1.277,46.738 2.445,47.91L16.59,62.051C17.156,62.617 17.91,62.934 18.715,62.934C19.516,62.934 20.266,62.621 20.832,62.051L62.551,20.332C63.723,19.16 63.723,17.262 62.551,16.09L48.41,1.945C47.844,1.379 47.066,1.098 46.289,1.098ZM46.289,3.07C46.559,3.07 46.809,3.172 46.996,3.359L61.141,17.504C61.527,17.895 61.527,18.527 61.141,18.922L60.406,19.652C60.371,19.602 58.996,20.984 59.043,21.016L56.871,23.188C56.836,23.137 56.816,23.082 56.773,23.039L51.824,18.09C51.434,17.699 50.801,17.699 50.41,18.09C50.02,18.48 50.02,19.113 50.41,19.504L55.359,24.453C55.402,24.496 55.457,24.516 55.504,24.551L53.336,26.719C53.301,26.672 51.922,28.051 51.969,28.086L49.801,30.258C49.766,30.211 48.387,31.586 48.438,31.621L46.266,33.793C46.23,33.746 46.211,33.691 46.168,33.645L41.219,28.695C40.828,28.305 40.195,28.305 39.805,28.695C39.414,29.086 39.414,29.719 39.805,30.109L44.754,35.062C44.797,35.105 44.852,35.121 44.902,35.156L42.73,37.328C42.695,37.277 41.316,38.656 41.363,38.691L39.191,40.863C39.16,40.816 37.777,42.195 37.828,42.23L35.656,44.398C35.625,44.352 35.605,44.297 35.562,44.25L30.609,39.301C30.219,38.91 29.59,38.91 29.199,39.301C28.805,39.695 28.805,40.324 29.199,40.719L34.148,45.668C34.191,45.711 34.246,45.73 34.297,45.766L32.125,47.934C32.09,47.887 30.711,49.266 30.758,49.301L28.59,51.469C28.555,51.422 27.172,52.801 27.219,52.836L25.051,55.004C25.016,54.957 24.996,54.902 24.953,54.859L20.004,49.91C19.613,49.52 18.98,49.52 18.59,49.91C18.199,50.301 18.199,50.934 18.59,51.324L23.539,56.273C23.582,56.316 23.637,56.336 23.688,56.371L21.516,58.543C21.484,58.496 20.102,59.875 20.152,59.906L19.418,60.641C19.039,61.02 18.383,61.02 18.004,60.641L3.859,46.496C3.473,46.105 3.473,45.473 3.859,45.078L45.582,3.359C45.77,3.172 46.02,3.07 46.289,3.07ZM46,7.031C45.223,7.031 44.445,7.312 43.879,7.879C42.711,9.051 42.707,10.949 43.879,12.121C44.445,12.688 45.199,13 46,13C46.801,13 47.555,12.688 48.121,12.121C49.293,10.949 49.293,9.051 48.121,7.879C47.555,7.312 46.777,7.031 46,7.031ZM46,9C46.266,9 46.52,9.105 46.707,9.293C47.098,9.684 47.098,10.316 46.707,10.707C46.328,11.086 45.672,11.086 45.297,10.707C44.906,10.316 44.906,9.684 45.297,9.293C45.484,9.105 45.734,9 46,9Z" style="fill-rule:nonzero;stroke:black;stroke-width:0.63px;"/>
            </g>
        </g>
    </g>
</svg>
