<?xml version="1.0" encoding="UTF-8" standalone="no"?>
<!DOCTYPE svg PUBLIC "-//W3C//DTD SVG 1.1//EN" "http://www.w3.org/Graphics/SVG/1.1/DTD/svg11.dtd">
<svg width="100%" height="100%" viewBox="0 0 50 50" version="1.1" xmlns="http://www.w3.org/2000/svg" xmlns:xlink="http://www.w3.org/1999/xlink" xml:space="preserve" xmlns:serif="http://www.serif.com/" style="fill-rule:evenodd;clip-rule:evenodd;stroke-linejoin:round;stroke-miterlimit:2;">
    <rect id="Artboard1" x="0" y="0" width="50" height="50" style="fill:none;"/>
    <g id="Artboard11" serif:id="Artboard1">
        <path d="M42,6.123L42,12.668C41.688,12.558 41.353,12.498 41.005,12.498C40.789,12.498 40.572,12.522 40.361,12.568C37.249,13.25 32.458,14.294 27.914,15.285C24.218,16.091 20.686,16.861 18.351,17.372C18.231,17.398 18.114,17.432 18.001,17.471L18.001,11.09C20.499,10.555 38.586,6.827 42,6.123M42,31.61L42,34C42,37.8 41.172,40 36.94,40C31,40 31,37.688 31,36C31,34.663 31,33 37,33C39.364,33 40.947,32.434 42,31.61M16,36.61L16,39C16,42.8 15.172,45 10.94,45C5,45 5,42.688 5,41C5,39.663 5,38 11,38C13.364,38 14.947,37.434 16,36.61M42.472,4.02C42.28,4.02 42.15,4.05 42.15,4.05C42.15,4.05 19,8.82 17.37,9.18C16.39,9.39 16,10.04 16,11L16,32C16,34.21 14.97,36 11,36C5.34,36 3,37.46 3,41C3,43.38 3.49,47 10.94,47C17.85,47 18,41.68 18,39L18,20.301C18,19.831 18.321,19.426 18.78,19.325C23.982,18.187 35.145,15.757 40.788,14.521C40.861,14.505 40.933,14.497 41.005,14.497C41.542,14.497 42,14.933 42,15.498L42,27C42,29.21 40.97,31 37,31C31.34,31 29,32.46 29,36C29,38.38 29.49,42 36.94,42C43.85,42 44,36.68 44,34L44,6C44,4.252 43.002,4.02 42.472,4.02Z" style="fill-rule:nonzero;"/>
    </g>
</svg>
