<?xml version="1.0" encoding="UTF-8" standalone="no"?><!DOCTYPE svg PUBLIC "-//W3C//DTD SVG 1.1//EN" "http://www.w3.org/Graphics/SVG/1.1/DTD/svg11.dtd"><svg width="100%" height="100%" viewBox="0 0 205 205" version="1.1" xmlns="http://www.w3.org/2000/svg" xmlns:xlink="http://www.w3.org/1999/xlink" xml:space="preserve" xmlns:serif="http://www.serif.com/" style="fill-rule:evenodd;clip-rule:evenodd;stroke-linecap:round;stroke-linejoin:round;stroke-miterlimit:1.5;"><rect id="Artboard2" x="0" y="0" width="204.167" height="204.167" style="fill:none;"/><g><g transform="matrix(156.564743,0,0,156.564743,26.491358,132.731861)"><path d="M0.038,0.003c-0.005,0 -0.009,-0.001 -0.014,-0.004c-0.004,-0.002 -0.006,-0.006 -0.006,-0.011c0,-0.011 0.007,-0.018 0.022,-0.021c0.025,-0.005 0.043,-0.012 0.052,-0.021c0.009,-0.008 0.014,-0.023 0.014,-0.045l0,-0.448c-0,-0.023 -0.004,-0.039 -0.012,-0.05c-0.008,-0.01 -0.024,-0.018 -0.048,-0.023c-0.009,-0.002 -0.015,-0.005 -0.018,-0.009c-0.003,-0.004 -0.005,-0.008 -0.005,-0.012c0,-0.005 0.002,-0.008 0.006,-0.011c0.004,-0.003 0.009,-0.004 0.016,-0.004c0.016,0 0.033,0 0.051,0.001c0.017,0.001 0.034,0.001 0.051,0.002c0.017,0.001 0.033,0.001 0.048,0.001l0.175,0c0.027,0 0.052,-0.002 0.075,-0.005c0.022,-0.004 0.041,-0.005 0.055,-0.005c0.005,0 0.01,0.001 0.016,0.004c0.005,0.003 0.008,0.008 0.009,0.015c0.001,0.015 0.002,0.031 0.003,0.048c0.001,0.017 0.001,0.033 0.002,0.048c0,0.015 0,0.028 0,0.039c0,0.013 -0.004,0.02 -0.012,0.02c-0.003,0 -0.007,-0.001 -0.011,-0.004c-0.004,-0.003 -0.007,-0.007 -0.008,-0.012c-0.004,-0.016 -0.009,-0.031 -0.015,-0.044c-0.005,-0.013 -0.012,-0.024 -0.021,-0.033c-0.009,-0.009 -0.019,-0.016 -0.031,-0.02c-0.012,-0.004 -0.026,-0.006 -0.042,-0.006l-0.075,0c-0.016,0 -0.029,0.004 -0.039,0.013c-0.009,0.008 -0.014,0.02 -0.014,0.034c-0,0.012 -0,0.025 -0,0.042l0,0.091c0,0.017 0,0.033 0,0.048c0,0.008 0.002,0.014 0.006,0.018c0.004,0.004 0.01,0.006 0.017,0.006c0.016,0 0.082,-0.001 0.097,-0.001c0.017,0 0.029,-0.005 0.038,-0.015c0.008,-0.01 0.015,-0.022 0.021,-0.036c0.002,-0.005 0.006,-0.01 0.009,-0.013c0.004,-0.003 0.007,-0.005 0.011,-0.005c0.003,0 0.006,0.002 0.009,0.006c0.003,0.004 0.004,0.009 0.003,0.016c-0.001,0.014 -0.002,0.027 -0.003,0.039c-0.001,0.012 -0.001,0.023 -0.001,0.033c0,0.013 0,0.024 0.001,0.033c0.001,0.009 0.002,0.021 0.003,0.036c0.001,0.009 0.001,0.016 -0.002,0.02c-0.002,0.004 -0.005,0.006 -0.008,0.006c-0.005,0 -0.01,-0.002 -0.014,-0.007c-0.004,-0.005 -0.008,-0.01 -0.01,-0.016c-0.006,-0.02 -0.013,-0.033 -0.021,-0.04c-0.008,-0.007 -0.018,-0.011 -0.03,-0.011c-0.008,0 -0.039,-0 -0.047,-0l-0.03,0c-0.01,0 -0.02,0 -0.03,0c-0.007,0 -0.013,0.002 -0.017,0.006c-0.004,0.004 -0.006,0.01 -0.006,0.017c0,0.03 0,0.061 0.001,0.094c0.001,0.032 0.001,0.064 0.001,0.095c0,0.021 0.006,0.036 0.017,0.044c0.011,0.009 0.031,0.016 0.059,0.022c0.007,0.001 0.012,0.004 0.016,0.007c0.004,0.003 0.006,0.008 0.006,0.014c0,0.005 -0.002,0.008 -0.005,0.011c-0.003,0.002 -0.008,0.004 -0.014,0.004c-0.015,0 -0.032,-0 -0.051,-0.001c-0.019,-0.001 -0.038,-0.002 -0.057,-0.002c-0.019,-0.001 -0.035,-0.001 -0.048,-0.001c-0.014,0 -0.029,0 -0.046,0.001c-0.017,0.001 -0.034,0.002 -0.051,0.003c-0.017,0.001 -0.034,0.002 -0.049,0.002Z" style="fill-rule:nonzero;"/></g><g transform="matrix(156.564743,0,0,156.564743,108.913349,132.731861)"><path d="M0.219,0.014c-0.044,0 -0.077,-0.011 -0.099,-0.033c-0.022,-0.022 -0.033,-0.054 -0.033,-0.095l0,-0.23c0,-0.006 -0.002,-0.01 -0.007,-0.013c-0.005,-0.003 -0.013,-0.004 -0.024,-0.005l-0.013,0c-0.004,0 -0.008,-0.004 -0.011,-0.011c-0.003,-0.008 -0.005,-0.015 -0.005,-0.021c0,-0.001 0,-0.003 0.001,-0.005c0.001,-0.002 0.003,-0.004 0.005,-0.004c0.016,-0.006 0.033,-0.015 0.052,-0.028c0.018,-0.013 0.036,-0.026 0.053,-0.04c0.017,-0.014 0.031,-0.025 0.041,-0.034c0.005,-0.004 0.009,-0.007 0.013,-0.01c0.003,-0.003 0.008,-0.004 0.013,-0.004c0.006,0 0.01,0.001 0.013,0.004c0.003,0.002 0.003,0.008 0.002,0.016l-0.007,0.059c-0.001,0.008 0.001,0.014 0.006,0.017c0.005,0.003 0.011,0.004 0.019,0.004l0.119,0c0.002,0 0.003,0.002 0.005,0.007c0.002,0.005 0.003,0.009 0.003,0.013c0,0.01 -0.001,0.019 -0.004,0.027c-0.003,0.008 -0.005,0.013 -0.009,0.013l-0.093,0c-0.015,0 -0.025,0.002 -0.031,0.006c-0.006,0.004 -0.009,0.01 -0.009,0.02l0,0.189c0,0.03 0.006,0.053 0.017,0.068c0.012,0.015 0.027,0.023 0.047,0.023c0.019,0 0.033,-0.002 0.042,-0.006c0.009,-0.004 0.017,-0.007 0.025,-0.011c0.002,-0.001 0.005,-0.002 0.006,-0.002c0.003,0 0.006,0.002 0.008,0.006c0.002,0.004 0.003,0.009 0.003,0.014c0,0.004 -0.007,0.011 -0.021,0.022c-0.014,0.011 -0.032,0.021 -0.054,0.03c-0.022,0.009 -0.046,0.014 -0.072,0.014Z" style="fill-rule:nonzero;"/></g><g transform="matrix(156.564743,0,0,156.564743,167.575111,132.731861)"></g></g><g><path d="M174.573,158.333l-144.98,0" style="fill:none;stroke:#000;stroke-width:8.33px;"/><path d="M174.573,158.333l-16.065,-16.065l16.065,16.065Z" style="fill:#ebebeb;stroke:#000;stroke-width:8.33px;"/><path d="M174.573,158.333l-16.065,16.065l16.065,-16.065Z" style="fill:#ebebeb;stroke:#000;stroke-width:8.33px;"/></g></svg>