<svg xmlns="http://www.w3.org/2000/svg" viewBox="0 0 512 512"><title>baby</title><g id="Layer_2" data-name="Layer 2"><g id="Capa_1" data-name="Capa 1"><path d="M458.281,61.22a7.4995,7.4995,0,0,1-5.303-12.803l13.22-13.22A83.58573,83.58573,0,0,1,501.891,14.09a7.49955,7.49955,0,1,1,4.183,14.404,68.53024,68.53024,0,0,0-29.27,17.309l-13.22,13.221A7.48119,7.48119,0,0,1,458.281,61.22Z" fill="#353535"/><circle cx="264.39001" cy="52.15" r="52.15" fill="#f5d7b7"/><circle cx="264.39001" cy="52.15" r="52.15" fill="#efc8a5" opacity="0.1" style="isolation:isolate"/><circle cx="459.85001" cy="247.61" r="52.15" fill="#f5d7b7"/><circle cx="459.85001" cy="247.61" r="52.15" fill="#efc8a5" opacity="0.1" style="isolation:isolate"/><circle cx="100.47" cy="411.53" r="100.47" fill="#38648c"/><path d="M171.509,482.574a100.46785,100.46785,0,1,0-170.2-87.092c8.178,5.816,19.606,11.453,35.092,17.443,13.081,5.059,29.064,10.312,47.151,15.523,5.211,18.087,10.464,34.07,15.523,47.151,5.99,15.486,11.627,26.915,17.442,35.093A99.994,99.994,0,0,0,171.509,482.574Z" opacity="0.1" style="isolation:isolate"/><ellipse cx="358.57524" cy="153.41614" rx="153.9775" ry="150.60754" transform="translate(-3.45734 298.48553) rotate(-45)" fill="#efc8a5"/><ellipse cx="293.93102" cy="100.60719" rx="24.40476" ry="30.6457" transform="translate(14.95038 237.30778) rotate(-45)" fill="#f28b74"/><ellipse cx="411.40079" cy="218.07426" rx="24.40476" ry="30.6457" transform="translate(-33.70529 354.77676) rotate(-45)" fill="#f28b74"/><path d="M335.657,112.271a7.4995,7.4995,0,0,1-5.303-12.803,7.08661,7.08661,0,0,0-10.022-10.022A7.49992,7.49992,0,1,1,309.725,78.84a22.08613,22.08613,0,1,1,31.235,31.234A7.4723,7.4723,0,0,1,335.657,112.271Z" fill="#353535"/><path d="M427.857,204.472a7.4995,7.4995,0,0,1-5.303-12.803,7.08663,7.08663,0,0,0-10.022-10.022,7.50027,7.50027,0,0,1-10.607-10.607,22.08682,22.08682,0,0,1,31.235,31.236A7.481,7.481,0,0,1,427.857,204.472Z" fill="#353535"/><path d="M356.97955,183.04747a28.00538,28.00538,0,0,1-27.95-29.944,7.5001,7.5001,0,0,1,14.965,1.027,13.00621,13.00621,0,0,0,13.885,13.885,7.50017,7.50017,0,0,1,1.029,14.965Q357.941,183.048,356.97955,183.04747Z" fill="#353535"/><path d="M317.674,7.63a155.97248,155.97248,0,0,0-65.59,39.29c-60.132,60.132-61.198,156.559-2.381,215.377,34.102,34.102,80.846,48.069,125.83,42.069C279.545,272.489,250.148,112.211,317.674,7.63Z" opacity="0.05" style="isolation:isolate"/><path d="M130.184,220.867c61.316.735,199.893,15.334,279.674,56.98a27.74051,27.74051,0,0,1,13.145,34.371c-12.513,33.339-45.535,82.599-75.761,112.234a76.17809,76.17809,0,0,1-57.624,21.576c-84.319-4.794-270.36-47.62-283.914-75.374C-8.063,342.463,35.186,269.926,86.883,233.99A74.24369,74.24369,0,0,1,130.184,220.867Z" fill="#76b7eb"/><path d="M130.184,220.867c61.316.735,199.893,15.334,279.674,56.98a27.74051,27.74051,0,0,1,13.145,34.371c-12.513,33.339-45.535,82.599-75.761,112.234a76.17809,76.17809,0,0,1-57.624,21.576c-84.319-4.794-270.36-47.62-283.914-75.374C-8.063,342.463,35.186,269.926,86.883,233.99A74.24369,74.24369,0,0,1,130.184,220.867Z" opacity="0.1" style="isolation:isolate"/><path d="M86.883,233.99a217.91661,217.91661,0,0,0-37.264,33.484c5.231,38.543,14.236,84.907,25.198,128.488.748,2.975,1.501,5.902,2.257,8.802,64.902,19.877,158.005,37.989,211.477,41.196q3.441-4.42048,6.591-8.937a94.57543,94.57543,0,0,0,16.853-55.459c-.319-26.674-3.846-81.702-14.215-140.88-64.025-13.762-130.187-19.371-167.594-19.819A74.26156,74.26156,0,0,0,86.883,233.99Z" opacity="0.1" style="isolation:isolate"/><path d="M291.133,381.816c-.734-61.316-15.334-199.893-56.98-279.674a27.74053,27.74053,0,0,0-34.371-13.145c-33.339,12.513-82.599,45.535-112.234,75.761a76.17816,76.17816,0,0,0-21.576,57.624c4.794,84.319,47.62,270.36,75.374,283.914,28.191,13.768,100.729-29.481,136.665-81.178A74.25513,74.25513,0,0,0,291.133,381.816Z" fill="#76b7eb"/><g opacity="0.1"><path d="M115.311,322.719a7.49978,7.49978,0,0,1-7.346-6.029c-.639-3.191-3.623-22.721-3.623-26.506a7.50005,7.50005,0,0,1,15-.04c.081,2.477,2.577,19.835,3.331,23.603a7.49973,7.49973,0,0,1-5.882,8.826A7.65206,7.65206,0,0,1,115.311,322.719Zm4.031-32.535h0Z"/><path d="M196.94,186.434a7.51176,7.51176,0,0,1-7.121-9.897c.549-1.647,2.038-4.78,5.388-11.638.926-1.896,1.801-3.688,2.119-4.39a7.5,7.5,0,1,1,13.665,6.186c-.409.903-1.246,2.617-2.306,4.788-1.467,3.003-4.198,8.594-4.649,9.838A7.47478,7.47478,0,0,1,196.94,186.434Z"/><path d="M231.833,332.558a7.46435,7.46435,0,0,1-3.759-1.015c-3.667-2.13-13.912-7.987-17.232-9.501a7.49992,7.49992,0,1,1,6.221-13.649c4.59,2.092,17.129,9.355,18.544,10.177a7.50148,7.50148,0,0,1-3.774,13.988Z"/><path d="M180.444,458.325a7.49953,7.49953,0,0,1-7.5-7.5c0-4.133-1.079-19.716-1.598-27.205-.166-2.404-.292-4.22-.34-5.013a7.50039,7.50039,0,0,1,14.974-.896c.046.771.168,2.535.33,4.873.791,11.413,1.634,23.949,1.634,28.241A7.49955,7.49955,0,0,1,180.444,458.325Z"/><path d="M328.574,327.64a7.50134,7.50134,0,0,1-2.492-14.576c2.874-1.012,9.618-5.054,14.081-7.728,6.528-3.912,8.695-5.17,10.838-5.599a7.50053,7.50053,0,0,1,3.689,14.52c-1.122.533-4.395,2.495-6.816,3.946-5.862,3.513-12.506,7.493-16.808,9.009A7.49575,7.49575,0,0,1,328.574,327.64Zm25.38-13.196-.009.002Z"/></g></g></g></svg>