<svg xmlns="http://www.w3.org/2000/svg" viewBox="0 0 320 260"><title>book_2</title><g id="Layer_2" data-name="Layer 2"><g id="Layer_1-2" data-name="Layer 1"><rect x="160" y="1" width="159" height="257" fill="#f9f9f9"/><polyline points="175 259 160 259 160 1 175 1" fill="#d8d8d8" stroke="#000" stroke-miterlimit="10" stroke-width="2"/><line x1="319" y1="1" x2="319" y2="259" fill="#f9f9f9" stroke="#000" stroke-miterlimit="10" stroke-width="2"/><line x1="194" y1="42" x2="285" y2="42" fill="none" stroke="#000" stroke-miterlimit="10" stroke-width="2"/><line x1="194" y1="64" x2="255" y2="64" fill="none" stroke="#000" stroke-miterlimit="10" stroke-width="2"/><line x1="194" y1="86" x2="279" y2="86" fill="none" stroke="#000" stroke-miterlimit="10" stroke-width="2"/><line x1="194" y1="116" x2="229" y2="116" fill="none" stroke="#000" stroke-miterlimit="10" stroke-width="2"/><line x1="194" y1="141" x2="279" y2="141" fill="none" stroke="#000" stroke-miterlimit="10" stroke-width="2"/><line x1="194" y1="173" x2="237" y2="173" fill="none" stroke="#000" stroke-miterlimit="10" stroke-width="2"/><line x1="194" y1="202" x2="268" y2="202" fill="none" stroke="#000" stroke-miterlimit="10" stroke-width="2"/><line x1="175" y1="1" x2="319" y2="2" fill="none" stroke="#000" stroke-miterlimit="10" stroke-width="2"/><line x1="175" y1="259" x2="319" y2="258" fill="none" stroke="#000" stroke-miterlimit="10" stroke-width="2"/><rect x="1" y="1" width="159" height="257" transform="translate(161 259) rotate(-180)" fill="#f9f9f9"/><polyline points="145 259 160 259 160 1 145 1" fill="#d8d8d8" stroke="#000" stroke-miterlimit="10" stroke-width="2"/><line x1="1" y1="1" x2="1" y2="259" fill="#f9f9f9" stroke="#000" stroke-miterlimit="10" stroke-width="2"/><line x1="126" y1="42" x2="35" y2="42" fill="none" stroke="#000" stroke-miterlimit="10" stroke-width="2"/><line x1="126" y1="64" x2="65" y2="64" fill="none" stroke="#000" stroke-miterlimit="10" stroke-width="2"/><line x1="126" y1="86" x2="41" y2="86" fill="none" stroke="#000" stroke-miterlimit="10" stroke-width="2"/><line x1="126" y1="116" x2="91" y2="116" fill="none" stroke="#000" stroke-miterlimit="10" stroke-width="2"/><line x1="126" y1="141" x2="41" y2="141" fill="none" stroke="#000" stroke-miterlimit="10" stroke-width="2"/><line x1="126" y1="173" x2="83" y2="173" fill="none" stroke="#000" stroke-miterlimit="10" stroke-width="2"/><line x1="126" y1="202" x2="52" y2="202" fill="none" stroke="#000" stroke-miterlimit="10" stroke-width="2"/><line x1="145" y1="1" x2="1" y2="2" fill="none" stroke="#000" stroke-miterlimit="10" stroke-width="2"/><line x1="145" y1="259" x2="1" y2="258" fill="none" stroke="#000" stroke-miterlimit="10" stroke-width="2"/></g></g></svg>