<svg xmlns="http://www.w3.org/2000/svg" viewBox="0 0 455.33203 446.4375"><title>chimney</title><g id="Layer_2" data-name="Layer 2"><g id="Layer_1-2" data-name="Layer 1"><path d="M43.793,98.52344H411.53125V446.4375H43.793Z" fill="#f76d52"/><path d="M43.793,98.52344H411.53125v68.09765H43.793Z" fill="#d84b3d"/><path d="M43.793,98.52344H81.86719V446.4375H43.793Z" fill="#d84b3d"/><path d="M43.793,229.63281H411.53125v16.02344H43.793Z" fill="#daf3fe"/><path d="M43.793,334.03125H411.53125v16.02344H43.793Z" fill="#daf3fe"/><path d="M143.97266,342.9375h16.02343v103.5H143.97266Z" fill="#daf3fe"/><path d="M146.75391,116.48828h16.01953V237.64453H146.75391Z" fill="#daf3fe"/><path d="M292.55078,116.48828h16.01953V237.64453H292.55078Z" fill="#daf3fe"/><path d="M73.85547,236.12109H89.87891v103.918H73.85547Z" fill="#daf3fe"/><path d="M219.65234,236.12109h16.01954v103.918H219.65234Z" fill="#daf3fe"/><path d="M365.44531,236.12109h16.02344v103.918H365.44531Z" fill="#daf3fe"/><path d="M289.76953,342.9375h16.01953v103.5H289.76953Z" fill="#daf3fe"/><path d="M455.332,31.10547v71.03125a31.11469,31.11469,0,0,1-31.11719,31.11719H31.10547A31.10469,31.10469,0,0,1,0,102.13672V31.10547A31.10219,31.10219,0,0,1,31.10547,0H424.21484A31.11219,31.11219,0,0,1,455.332,31.10547Z" fill="#374951"/><path d="M455.332,31.10547v71.03125a31.11469,31.11469,0,0,1-31.11719,31.11719H112.81641a31.11385,31.11385,0,0,1-31.11328-31.11719V31.10547A31.11135,31.11135,0,0,1,112.81641,0H424.21484A31.11219,31.11219,0,0,1,455.332,31.10547Z" fill="#4a5c66"/></g></g></svg>