<svg id="Capa_1" enable-background="new 0 0 512 512" height="512" viewBox="0 0 512 512" width="512" xmlns="http://www.w3.org/2000/svg"><path d="m405.262 0c-58.95 0-106.738 47.788-106.738 106.738l106.738 20.016 106.738-20.016c0-58.95-47.788-106.738-106.738-106.738z" fill="#3d9ae2"/><path d="m278.508 270.139 168.848 241.861h64.644v-405.262h-213.476z" fill="#fff5f5"/><path d="m298.524 106.738h-42.524l-20.016 99.616 62.54-20.016z" fill="#1865a1"/><path d="m80.161 106.738 60.145 99.616 115.694-20.016v-79.6z" fill="#3d9ae2"/><path d="m298.524 186.338h-42.524l-20.016 83.801 62.54-20.016z" fill="#efe2dd"/><path d="m160.322 186.338-20.016 83.801 115.694-20.016v-63.785z" fill="#fff5f5"/><path d="m358.369 154.577h30v42.523h-30z" fill="#4f2f25"/><path d="m160.322 186.338-80.161-79.6-80.161 79.6v325.662h64.644l95.678-261.877z" fill="#efe2dd"/><path d="m65.161 191.785h30v42.524h-30z" fill="#724435"/><path d="m422.154 154.577h30v42.523h-30z" fill="#4f2f25"/><path d="m351.678 250.123h-95.678l-20.016 126.325 211.372-20.016z" fill="#1865a1"/><path d="m160.322 250.123 31.893 93.815 63.785 12.494v-106.309z" fill="#3d9ae2"/><path d="m235.984 356.432 20.016 155.568h191.356v-155.568z" fill="#efe2dd"/><path d="m160.322 250.123-95.678 106.309v155.568h63.785l31.893-20.016 31.893 20.016h63.785v-155.568z" fill="#fff5f5"/><path d="m128.429 402.513h63.785v109.487h-63.785z" fill="#a05f4b"/></svg>