<svg xmlns="http://www.w3.org/2000/svg" viewBox="0 0 1577.92688 288.04647"><title>cloud</title><g id="Layer_2" data-name="Layer 2"><g id="Layer_1-2" data-name="Layer 1"><path d="M375.16124,112.363a87.73272,87.73272,0,0,0-17.39443,1.73905A71.73509,71.73509,0,0,0,257.2994,63.10023a95.74982,95.74982,0,0,0-180.00378,65.351,79.8176,79.8176,0,0,0,2.398,159.59524h295.4676a87.84172,87.84172,0,1,0,0-175.68344Z" fill="#c0e7ff"/><path d="M1172.08639,112.363a87.73272,87.73272,0,0,0-17.39443,1.73905,71.73509,71.73509,0,0,0-100.46741-51.00185,95.74982,95.74982,0,0,0-180.00378,65.351,79.8176,79.8176,0,0,0,2.398,159.59524h295.4676a87.84172,87.84172,0,1,0,0-175.68344Z" fill="#c0e7ff"/><rect width="1577.92688" height="288.04647" fill="none"/></g></g></svg>