<?xml version="1.0" encoding="iso-8859-1"?>
<!-- Generator: Adobe Illustrator 19.0.0, SVG Export Plug-In . SVG Version: 6.00 Build 0)  -->
<svg version="1.1" id="Layer_1" xmlns="http://www.w3.org/2000/svg" xmlns:xlink="http://www.w3.org/1999/xlink" x="0px" y="0px"
	 viewBox="0 0 512 512" style="enable-background:new 0 0 512 512;" xml:space="preserve">
<path style="fill:#FF7059;" d="M255.986,40.327C127.574,40.327,20.963,133.542,0,255.992
	c20.963,122.466,127.574,215.681,255.986,215.681c128.449,0,235.051-93.215,256.014-215.681
	C491.039,133.542,384.434,40.327,255.986,40.327z"/>
<path style="fill:#FFFFFF;" d="M255.986,131.654c-106.248,0-199.047,50.039-248.664,124.318
	c49.617,74.336,142.416,124.365,248.664,124.365c106.252,0,199.066-50.029,248.701-124.365
	C455.051,181.692,362.238,131.654,255.986,131.654z"/>
<path style="fill:#80DCFF;" d="M214.468,134.246c6.515,9.323,7.591,21.779,3.542,33.672c11.298-6.134,24.236-9.62,37.975-9.62
	c44.075,0,79.849,35.758,79.849,79.813c0,44.046-35.774,79.849-79.849,79.849c-44.007,0-79.798-35.803-79.798-79.849
	c0-13.767,3.495-26.724,9.643-38.033c-13.788,4.7-28.364,2.571-37.906-6.974c-10.307-10.31-12.041-26.367-5.873-41.08
	c-5.78,2.168-11.461,4.495-17.037,6.976c-13.979,23.087-22.029,50.161-22.029,79.111c0,57.617,31.862,107.762,78.9,133.85
	c23.641,5.458,48.478,8.376,74.1,8.376c25.642,0,50.497-2.922,74.155-8.387c47.039-26.091,78.884-76.231,78.884-133.838
	c0-28.942-8.044-56.01-22.016-79.093c-39.287-17.485-83.827-27.365-131.023-27.365C241.885,131.654,228.025,132.543,214.468,134.246
	z"/>
<path style="fill:#34495E;" d="M185.831,200.078c-6.148,11.308-9.643,24.265-9.643,38.033c0,44.046,35.791,79.849,79.798,79.849
	c44.075,0,79.849-35.803,79.849-79.849c0-44.055-35.774-79.813-79.849-79.813c-13.739,0-26.677,3.486-37.975,9.62
	c-2.397,7.039-6.583,13.881-12.51,19.757C199.661,193.531,192.848,197.686,185.831,200.078z M219.791,201.861
	c8.335-8.337,20.699-9.525,27.673-2.562c6.935,6.935,5.8,19.345-2.613,27.701c-8.313,8.335-20.752,9.523-27.662,2.599
	C210.24,222.646,211.399,210.272,219.791,201.861z"/>
<g>
	<path style="fill:#FFFFFF;" d="M244.851,227c8.413-8.356,9.548-20.767,2.613-27.701c-6.973-6.963-19.337-5.775-27.673,2.562
		c-8.393,8.411-9.552,20.785-2.603,27.738C224.098,236.524,236.538,235.336,244.851,227z"/>
	<path style="fill:#FFFFFF;" d="M147.925,193.104c9.542,9.546,24.118,11.674,37.906,6.974c7.017-2.392,13.83-6.546,19.67-12.403
		c5.927-5.875,10.114-12.717,12.51-19.757c4.049-11.893,2.972-24.349-3.542-33.672c-25.363,3.185-49.653,9.241-72.417,17.778
		C135.884,166.737,137.618,182.794,147.925,193.104z"/>
</g>
<g>
</g>
<g>
</g>
<g>
</g>
<g>
</g>
<g>
</g>
<g>
</g>
<g>
</g>
<g>
</g>
<g>
</g>
<g>
</g>
<g>
</g>
<g>
</g>
<g>
</g>
<g>
</g>
<g>
</g>
</svg>
