<?xml version="1.0" encoding="iso-8859-1"?>
<!-- Generator: Adobe Illustrator 19.0.0, SVG Export Plug-In . SVG Version: 6.00 Build 0)  -->
<svg version="1.1" id="Capa_1" xmlns="http://www.w3.org/2000/svg" xmlns:xlink="http://www.w3.org/1999/xlink" x="0px" y="0px"
	 viewBox="0 0 512 512" style="enable-background:new 0 0 512 512;" xml:space="preserve">
<g>
	<polygon style="fill:#5D9CEC;" points="192,112 192,160 144,152 	"/>
	<path style="fill:#5D9CEC;" d="M360,160H192v-48c30.4,0,66,0,88,0C296,112,360,160,360,160z"/>
</g>
<path style="fill:#4A89DC;" d="M280,112c-8.856,0-35.96,0-48,0c16,0,80,48,80,48h48C360,160,296,112,280,112z"/>
<path style="fill:#ED5565;" d="M511.16,204.424l-5.4-10.8l3.848-3.8c1.92-1.888,2.768-4.624,2.232-7.272
	c-0.52-2.64-2.352-4.84-4.848-5.848c-1.672-0.672-41.736-16.44-144.064-24.504C345.496,139.208,296.68,104,280,104h-96
	c-31.528,0-114.128,40.184-129.88,48H16c-4.424,0-8,3.576-8,8v20.688l-5.656,5.656C0.84,187.84,0,189.872,0,192v56
	c0,2.128,0.84,4.16,2.344,5.656l23.992,23.992c0.736,0.744,1.624,1.328,2.608,1.736C29.92,279.792,30.96,280,32,280h32h8h376h16h40
	c4.424,0,8-3.576,8-8v-64C512,206.76,511.712,205.528,511.16,204.424z M200,120h80c6.256,0,30.624,14.8,55.272,32H200V120z
	 M184,129.088v21.472l-21.48-3.576L184,129.088z"/>
<path style="fill:#DA4453;" d="M208,200h-16c-4.424,0-8-3.576-8-8s3.576-8,8-8h16c4.424,0,8,3.576,8,8S212.424,200,208,200z"/>
<g>
	<path style="fill:#FFCE54;" d="M88,328h64c0,48.64-14.32,80-32,80S88,376.64,88,328z"/>
	<path style="fill:#FFCE54;" d="M368,328h64c0,48.64-14.32,80-32,80S368,376.64,368,328z"/>
</g>
<polygon style="fill:#656D78;" points="448,296 448,328 432,328 368,328 352,328 352,296 "/>
<polygon style="fill:#434A54;" points="416,296 416,328 432,328 448,328 448,296 "/>
<path style="fill:#E6E9ED;" d="M448,272v24h-96v-24c0-26.48,21.52-48,48-48S448,245.52,448,272z"/>
<path style="fill:#CCD1D9;" d="M400,224c-5.616,0-10.984,1.016-16,2.8c18.616,6.608,32,24.344,32,45.2v24h32v-24
	C448,245.52,426.48,224,400,224z"/>
<polygon style="fill:#656D78;" points="168,296 168,328 152,328 88,328 72,328 72,296 "/>
<path style="fill:#E6E9ED;" d="M168,272v24H72v-24c0-26.48,21.52-48,48-48S168,245.52,168,272z"/>
<polygon style="fill:#434A54;" points="136,296 136,328 152,328 168,328 168,296 "/>
<path style="fill:#CCD1D9;" d="M120,224c-5.616,0-10.984,1.016-16,2.8c18.616,6.608,32,24.344,32,45.2v24h32v-24
	C168,245.52,146.48,224,120,224z"/>
<g>
	<path style="fill:#DA4453;" d="M493.96,172.52c0,0,0.016,0,0.024,0.008l0.008-0.008C494.216,172.296,494.168,172.336,493.96,172.52
		z"/>
	<path style="fill:#DA4453;" d="M511.16,204.424l-5.4-10.792l3.84-3.768c1.928-1.888,2.776-4.616,2.24-7.264
		c-0.52-2.648-2.344-4.848-4.848-5.856c-0.504-0.208-4.648-1.832-13.008-4.208L473.76,193.64l5.4,10.792
		c0.552,1.096,0.84,2.328,0.84,3.568v64c0,4.424-3.576,8-8,8h32c4.424,0,8-3.576,8-8v-64C512,206.76,511.712,205.528,511.16,204.424
		z"/>
</g>
<g>
</g>
<g>
</g>
<g>
</g>
<g>
</g>
<g>
</g>
<g>
</g>
<g>
</g>
<g>
</g>
<g>
</g>
<g>
</g>
<g>
</g>
<g>
</g>
<g>
</g>
<g>
</g>
<g>
</g>
</svg>
