<svg xmlns="http://www.w3.org/2000/svg" viewBox="0 0 503.85604 295.36386"><title>hand-holding</title><g id="Layer_2" data-name="Layer 2"><g id="Layer_1-2" data-name="Layer 1"><path d="M434.358,26.06183a17.3732,17.3732,0,0,0-17.374,17.374v86.872h34.749v-86.872A17.3747,17.3747,0,0,0,434.358,26.06183Z" fill="#ffc552"/><path d="M69.498,26.06183a17.37322,17.37322,0,0,1,17.374,17.374v86.872H52.123v-86.872A17.37471,17.37471,0,0,1,69.498,26.06183Z" fill="#ffc552"/><path d="M18.215.01982c9.345.44,16.535,8.49,16.535,17.846l17.374,77.694,52.123,43.436h18.859a4.34338,4.34338,0,0,0,3.842-6.37l-17.704-33.56A17.3748,17.3748,0,0,1,134,74.67984s44.743,67.067,64.878,95.426a52.18528,52.18528,0,0,1,9.617,30.213v86.358a8.68791,8.68791,0,0,1-8.687,8.687h-60.81a8.6879,8.6879,0,0,1-8.687-8.687v-43.436l-102.685-111.24a8.69518,8.69518,0,0,1-2.082-3.939L0,17.37481A17.37627,17.37627,0,0,1,18.215.01982Z" fill="#ffe5ba"/><path d="M12.81.60682l27.368,121.375,116.552,121.62v51.761H138.994a8.6879,8.6879,0,0,1-8.687-8.687v-43.436L27.626,132.00082a8.69518,8.69518,0,0,1-2.082-3.939L0,17.37481A17.38215,17.38215,0,0,1,12.81.60682Z" fill="#ffd686"/><path d="M485.641.01982c-9.345.44-14.463,8.722-16.535,17.846-5.068,22.313-17.374,77.694-17.374,77.694l-52.123,43.436H380.75a4.3434,4.3434,0,0,1-3.842-6.37l17.704-33.56a17.3748,17.3748,0,1,0-24.756-24.386s-44.743,67.067-64.878,95.426a52.18542,52.18542,0,0,0-9.617,30.213v86.358a8.68793,8.68793,0,0,0,8.687,8.687h60.81a8.68793,8.68793,0,0,0,8.687-8.687v-43.436l102.683-111.24a8.69528,8.69528,0,0,0,2.082-3.939l25.544-110.687A17.37351,17.37351,0,0,0,485.641.01982Z" fill="#ffe5ba"/><path d="M491.046.60682l-27.369,121.375-116.552,121.62v51.761h17.736a8.68792,8.68792,0,0,0,8.687-8.687v-43.436l102.683-111.24a8.69528,8.69528,0,0,0,2.082-3.939l25.543-110.687A17.3831,17.3831,0,0,0,491.046.60682Z" fill="#ffd686"/></g></g></svg>