<svg xmlns="http://www.w3.org/2000/svg" viewBox="0 0 58.14437 55.25488"><title>heart_1</title><g id="Layer_2" data-name="Layer 2"><g id="Capa_1" data-name="Capa 1"><path d="M28.9894,55.21289q-.90088-.646-1.77148-1.291l-.105-.07813.10253-.08008C38.48208,44.88379,46.65688,35.45605,50.8561,26.499a19.83288,19.83288,0,0,0,.52051-15.58349A17.66264,17.66264,0,0,0,41.55922.83447,14.1835,14.1835,0,0,0,40.14907.3374l.01465-.19482A13.11285,13.11285,0,0,1,41.90493.02637a14.82086,14.82086,0,0,1,5.5498,1.13232A16.92959,16.92959,0,0,1,56.86,10.81592a18.97519,18.97519,0,0,1-.502,14.898c-3.19922,6.81445-10.52344,17.46484-27.25195,29.499l-.05859.042Z" fill="#c65454"/><path d="M56.26729,25.67161c-3.69,7.86-11.54,18.18-27.22,29.46q-.9-.64508-1.77-1.29c13.22-10.42,20.19-19.88,23.67-27.3,4.55-9.71.59-21.76-9.35-25.8a14.18609,14.18609,0,0,0-1.42-.5,14.09938,14.09938,0,0,1,7.24,1.01C56.82729,5.08158,60.57729,16.4716,56.26729,25.67161Z" fill="#c65454"/><path d="M27.21792,53.92188C11.75649,42.43555,4.85463,32.22559,1.78725,25.68408a18.96007,18.96007,0,0,1-.501-14.89892,16.90323,16.90323,0,0,1,9.39356-9.64649A16.10744,16.10744,0,0,1,13.46645.28418,13.88871,13.88871,0,0,1,16.24086,0a15.23965,15.23965,0,0,1,9.3086,3.45313A19.41157,19.41157,0,0,1,29.048,6.96338c.627-.82715,4.78174-6.00244,11.1167-6.8208A12.70274,12.70274,0,0,1,41.6354.64941a17.86568,17.86568,0,0,1,9.92773,10.19288A20.03516,20.03516,0,0,1,51.03774,26.584c-4.21289,8.98438-12.4082,18.4375-23.69824,27.33594l-.06006.04785Z" fill="#ff5f5f"/><path d="M50.94729,26.5416c-3.48,7.42-10.45,16.88-23.67,27.3-14.51-10.78-21.85-20.63-25.4-28.2-4.31-9.19-.56006-20.59,8.84-24.41a16.13123,16.13123,0,0,1,2.77-.85,14.46665,14.46665,0,0,1,12,3.15,18.66913,18.66913,0,0,1,3.56,3.6s4.24-6,11.13-6.89a14.18609,14.18609,0,0,1,1.42.5C51.53731,4.78159,55.49733,16.83158,50.94729,26.5416Z" fill="#ff5f5f"/></g></g></svg>