<svg xmlns="http://www.w3.org/2000/svg" viewBox="0 0 347.12106 512.0005"><title>lightbulb</title><g id="Layer_2" data-name="Layer 2"><g id="Capa_1" data-name="Capa 1"><path d="M128.3521,471.7125v25.157a15.11994,15.11994,0,0,0,15.019,15.131h60.377a15.11933,15.11933,0,0,0,15.019-15.131v-25.157h-90.415Z" fill="#576574"/><path d="M159.95009,496.86949v-25.157h-31.598v25.157a15.11932,15.11932,0,0,0,15.019,15.131h31.598A15.12,15.12,0,0,1,159.95009,496.86949Z" fill="#3e4b5a"/><path d="M175.9621.0175a173.54973,173.54973,0,0,0-124.663,296.717,159.97253,159.97253,0,0,1,38.453,62.256l14.42,42.458a14.9508,14.9508,0,0,1,2.428-.216h133.922a14.8497,14.8497,0,0,1,2.428.216l14.421-42.463a161.23135,161.23135,0,0,1,38.677-62.475A173.55014,173.55014,0,0,0,175.9621.0175Z" fill="#feca57"/><path d="M120.65909,358.9915a159.97255,159.97255,0,0,0-38.453-62.256A173.56621,173.56621,0,0,1,188.9451.6755q-6.42751-.564-12.982-.659a173.55113,173.55113,0,0,0-124.665,296.718,159.97244,159.97244,0,0,1,38.453,62.256l14.42,42.458a14.8275,14.8275,0,0,1,2.427-.216h28.406Z" fill="#f4b537"/><path d="M240.52109,401.23249a14.8487,14.8487,0,0,1,2.428.216l.073-.216Z" fill="#f4b537"/><path d="M198.3501,382.05549a7.7798,7.7798,0,0,1-7.727-7.831c0-62.87,13.458-103.34,14.031-105.033a7.702,7.702,0,0,1,9.816-4.865,7.85655,7.85655,0,0,1,4.802,9.944c-.17.506-13.195,39.98-13.195,99.954A7.77855,7.77855,0,0,1,198.3501,382.05549Z" fill="#e59d1f"/><path d="M148.77009,382.05549a7.77982,7.77982,0,0,1-7.727-7.831c0-60.061-13.064-99.563-13.197-99.956a7.8593,7.8593,0,0,1,4.811-9.941,7.6997,7.6997,0,0,1,9.808,4.864c.573,1.693,14.031,42.163,14.031,105.033A7.77769,7.77769,0,0,1,148.77009,382.05549Z" fill="#e59d1f"/><path d="M205.15509,374.3285h-63.19a13.65323,13.65323,0,0,0-13.613,13.613v13.292h90.415v-13.292A13.65171,13.65171,0,0,0,205.15509,374.3285Z" fill="#f4b537"/><path d="M172.53209,374.3285h-30.567a13.65323,13.65323,0,0,0-13.613,13.613v13.292h30.567v-13.292A13.65389,13.65389,0,0,1,172.53209,374.3285Z" fill="#e59d1f"/><path d="M240.52109,400.40751h-133.922a15.11931,15.11931,0,0,0-15.019,15.131v6.935a15.12,15.12,0,0,0,15.019,15.131h133.922a15.11933,15.11933,0,0,0,15.019-15.131v-6.935A15.11933,15.11933,0,0,0,240.52109,400.40751Z" fill="#ccd2db"/><path d="M240.52109,437.38951h-133.922a15.16438,15.16438,0,0,0-15.019,15.219v6.975a15.16438,15.16438,0,0,0,15.019,15.219h133.922a15.1644,15.1644,0,0,0,15.019-15.219v-6.975A15.1644,15.1644,0,0,0,240.52109,437.38951Z" fill="#e4eaf8"/><path d="M240.52109,417.0005h-133.922a15.03894,15.03894,0,0,1-13.373-8.296,15.06546,15.06546,0,0,0-1.646,6.835v6.935a15.12,15.12,0,0,0,15.019,15.131h133.922a15.11933,15.11933,0,0,0,15.019-15.131v-6.935a15.06527,15.06527,0,0,0-1.646-6.835A15.039,15.039,0,0,1,240.52109,417.0005Z" fill="#bcc2cc"/><path d="M240.52109,454.1985h-133.922a15.03265,15.03265,0,0,1-13.402-8.404,15.22715,15.22715,0,0,0-1.617,6.815v6.975a15.16438,15.16438,0,0,0,15.019,15.219h133.922a15.1644,15.1644,0,0,0,15.019-15.219v-6.975a15.227,15.227,0,0,0-1.617-6.815A15.0333,15.0333,0,0,1,240.52109,454.1985Z" fill="#ccd2db"/><path d="M225.20709,236.2785h-103.294a15.06308,15.06308,0,0,0-15.019,15.019v6.884a15.06311,15.06311,0,0,0,15.019,15.019h103.294a15.06311,15.06311,0,0,0,15.019-15.019v-6.884A15.06376,15.06376,0,0,0,225.20709,236.2785Z" fill="#f4b537"/><path d="M225.20709,252.6555h-103.294a15.05244,15.05244,0,0,1-13.351-8.188,14.86293,14.86293,0,0,0-1.668,6.831v6.884a15.06246,15.06246,0,0,0,15.019,15.019h103.294a15.06312,15.06312,0,0,0,15.019-15.019v-6.884a14.87527,14.87527,0,0,0-1.668-6.831A15.05249,15.05249,0,0,1,225.20709,252.6555Z" fill="#e59d1f"/></g></g></svg>