<svg xmlns="http://www.w3.org/2000/svg" viewBox="0 0 480.2 480.2"><defs><style>.cls-1{fill:#ffedb9;}.cls-2{fill:#ffd586;}.cls-3{fill:#e7b27e;}</style></defs><title>moon_1</title><g id="Layer_2" data-name="Layer 2"><g id="Layer_1-2" data-name="Layer 1"><g id="Layer_2-2" data-name="Layer 2"><g id="Capa_1" data-name="Capa 1"><path class="cls-1" d="M260.61,1.08l-2.43-.2,0-.2,2.43.2.78.07,0,.2Z"/><path class="cls-1" d="M258.19.78c1.07.08,2.14.18,3.21.27C260.33,1,259.26.86,258.19.78Z"/><path class="cls-1" d="M247.59.33l-1.41,0V.08l1.41.05.88,0v.2Z"/><path class="cls-1" d="M246.18.18l2.29.08Z"/><path class="cls-1" d="M254.1.62,252.34.51h-.13V.3h.13l1.85.11.88.06,0,.2Z"/><path class="cls-1" d="M252.21.4c1,0,1.91.12,2.86.18C254.12.52,253.17.45,252.21.4Z"/><path class="cls-1" d="M.08,246.07h.2c0,.34,0,1.23,0,1.23l0,.77H.15S.08,246.41.08,246.07Z"/><path class="cls-1" d="M.25,248.07c0-.66-.06-1.33-.07-2C.19,246.74.22,247.41.25,248.07Z"/><path class="cls-1" d="M1.43,266.28c-.09-.78-.17-1.56-.25-2.34l0-.16.2,0,0,.16c.06.63.13,1.25.2,1.88l.06.57-.2,0Z"/><path class="cls-1" d="M1.54,266.38c-.1-.87-.19-1.74-.28-2.61C1.35,264.64,1.44,265.51,1.54,266.38Z"/><path class="cls-1" d="M240.1,480.2A240.43,240.43,0,0,1,30.15,356.64l.17-.1A240.6,240.6,0,0,0,210.81,478.16C115.48,387.73,110.62,237.44,199.89,141L200,141l.07.08a31.89,31.89,0,0,0,49.14-40.63l-.07-.08.1-.06a239.25,239.25,0,0,1,51.35-24.12l.12,0v.13a34.74,34.74,0,0,0,6.11,17.54c6.14,9.07,15.59,14.69,24.69,14.69a18.87,18.87,0,0,0,10.66-3.16c10.42-7,11.51-23.7,2.44-37.1-.42-.62-.86-1.22-1.31-1.81l-.11-.13.17,0A244.2,244.2,0,0,1,376.1,64a241.69,241.69,0,0,1,28.71,1.77,240.66,240.66,0,0,0-101.18-57l.06-.19C407.62,37,480.2,132.23,480.2,240.1,480.2,372.49,372.49,480.2,240.1,480.2Zm25.93-97a47.2,47.2,0,0,0-12.17,1.63c-9.48,2.54-17.65,7.75-23,14.66s-7.2,14.68-5.27,21.9c3.07,11.48,15.36,19.18,30.57,19.18a46.77,46.77,0,0,0,12.17-1.63c9.49-2.54,17.65-7.74,23-14.65s7.2-14.68,5.27-21.91C293.53,390.88,281.24,383.17,266,383.17ZM176.1,376.3a8.07,8.07,0,0,0-5.61,2.19,7.9,7.9,0,1,0,11.22,0,8.07,8.07,0,0,0-5.61-2.19Zm201.36-56.1c-6.19,0-12.7,3-17.86,8.11a27.15,27.15,0,0,0-7.91,15c-.77,5.35.6,10.08,3.84,13.32a14.47,14.47,0,0,0,10.5,4.05c6.19,0,12.7-3,17.86-8.12,8.94-8.94,10.76-21.66,4.07-28.36A14.44,14.44,0,0,0,377.46,320.2Zm-149.36-64A43.9,43.9,0,1,0,272,300.1a43.89,43.89,0,0,0-43.9-43.9Zm92,24.1a8.07,8.07,0,0,0-5.61,2.19,7.9,7.9,0,1,0,11.22,0,8.07,8.07,0,0,0-5.61-2.19Zm75.28-72.1c-11.38,0-21.81,11.25-24.27,26.18a35.44,35.44,0,0,0,3.05,22c3.27,6.28,8.33,10.27,14.25,11.25a17.27,17.27,0,0,0,2.78.22c11.38,0,21.81-11.25,24.27-26.17a35.46,35.46,0,0,0-3-22c-3.27-6.27-8.33-10.27-14.24-11.24a17.31,17.31,0,0,0-2.79-.23Zm-83.28-40A23.9,23.9,0,1,0,336,192.1,23.9,23.9,0,0,0,312.1,168.2Zm-120,16.1a7.66,7.66,0,0,0-7.9,7.42v.38a7.9,7.9,0,1,0,13.51-5.61A8.07,8.07,0,0,0,192.1,184.3Zm192-40a7.67,7.67,0,0,0-5.52,2.16,7.9,7.9,0,0,0-2.37,5.61,8.22,8.22,0,0,0,2.29,5.61A8.13,8.13,0,0,0,384.1,160a7.93,7.93,0,0,0,5.61-13.51A8.08,8.08,0,0,0,384.09,144.33Z"/><path class="cls-1" d="M303.66,8.63A239.74,239.74,0,0,1,405.1,65.91a237.62,237.62,0,0,0-61.74.42c.45.59.89,1.19,1.31,1.81,9.12,13.48,8,30.15-2.46,37.24s-26.37,1.92-35.49-11.55a35,35,0,0,1-6.13-17.59,239,239,0,0,0-51.33,24.1A32,32,0,0,1,200,141.1c-89.31,96.46-84.35,246.84,11.14,337.19A240.17,240.17,0,0,1,30.23,356.59,239.93,239.93,0,0,0,240.1,480.1c132.55,0,240-107.45,240-240C480.1,129.56,405.36,36.49,303.66,8.63ZM186.42,186.42a8.11,8.11,0,1,1-2.32,5.68A8.2,8.2,0,0,1,186.42,186.42Zm-4.64,203.36a8.11,8.11,0,1,1,2.32-5.68,8.42,8.42,0,0,1-2.32,5.68Zm2.32-89.68a44,44,0,1,1,44,44A44,44,0,0,1,184.1,300.1ZM268.38,439c-19.66,5.26-38.85-2.62-42.86-17.62s8.66-31.42,28.32-36.68,38.84,2.62,42.86,17.62S288,433.75,268.38,439Zm57.4-145.23a8.1,8.1,0,1,1,2.32-5.68A8.4,8.4,0,0,1,325.78,293.78ZM312.1,216.1a24,24,0,1,1,24-24,24,24,0,0,1-24,24Zm66.4-69.68c2.79-2.88,8.24-3,11.28,0a8,8,0,0,1-5.68,13.68,8.29,8.29,0,0,1-5.68-2.32,8.4,8.4,0,0,1-2.32-5.68A8,8,0,0,1,378.5,146.42ZM384,352.67c-9,9-21.76,10.82-28.5,4.07s-4.93-19.5,4.07-28.5,21.75-10.81,28.5-4.07S393,343.68,384,352.67Zm4.43-84.93c-12.31-2-20.09-17-17.38-33.38s14.87-28.06,27.17-26,20.09,17,17.38,33.38S400.69,269.76,388.39,267.74Z"/><path class="cls-1" d="M.39,253.62c0-.54-.07-1.07-.1-1.6H.5c0,.5.05,1,.08,1.5l.05.87-.19,0Z"/><path class="cls-1" d="M.54,254.39C.49,253.6.43,252.81.4,252,.43,252.81.49,253.6.54,254.39Z"/><path class="cls-1" d="M303.4,8.66Q300.82,8,298.22,7.3l0-.19q2.6.64,5.18,1.35Z"/><path class="cls-1" d="M298.24,7.21c1.74.43,3.46.88,5.18,1.35C301.7,8.09,300,7.64,298.24,7.21Z"/><path class="cls-1" d="M290.73,5.57q-1.78-.39-3.6-.75l0-.19c1.21.24,2.41.49,3.61.75l1,.21,0,.2Z"/><path class="cls-1" d="M287.15,4.72c1.54.31,3.07.63,4.6,1C290.22,5.36,288.69,5,287.15,4.72Z"/><path class="cls-1" d="M267.07,1.72l-3-.33,0-.2c1,.1,2,.22,3,.33l.52.06,0,.2Z"/><path class="cls-1" d="M264.11,1.29l3.51.39Z"/><path class="cls-1" d="M.82,259.91c-.06-.67-.11-1.33-.16-2l.2,0q.06.92.15,1.83l.06.7-.2,0Z"/><path class="cls-1" d="M1,260.44c-.07-.84-.15-1.68-.21-2.53C.82,258.76.9,259.6,1,260.44Z"/><path class="cls-1" d="M297.59,7.15c-1.32-.32-2.64-.64-4-.94L292.71,6l.05-.19.91.2c1.33.31,2.65.62,4,1Z"/><path class="cls-1" d="M292.74,5.91q2.44.54,4.87,1.14C296,6.66,294.37,6.27,292.74,5.91Z"/><path class="cls-1" d="M273.61,2.54c-1.22-.17-2.43-.34-3.65-.49l0-.2c1.22.15,2.44.32,3.66.49l.13,0,0,.2Z"/><path class="cls-1" d="M270,2c1.27.16,2.52.33,3.78.51C272.49,2.28,271.24,2.11,270,2Z"/><path class="cls-1" d="M279.8,3.49c-1.35-.23-2.7-.45-4.05-.65l0-.2,4.05.65Z"/><path class="cls-1" d="M275.76,2.74c1.36.2,2.71.43,4.05.65C278.47,3.17,277.12,2.94,275.76,2.74Z"/><path class="cls-1" d="M285.8,4.57c-1.44-.28-2.88-.55-4.32-.8l0-.2c1.45.25,2.89.52,4.32.8Z"/><path class="cls-1" d="M281.49,3.67c1.45.25,2.89.52,4.33.8C284.38,4.19,282.94,3.92,281.49,3.67Z"/><path class="cls-1" d="M4,283.82c-.16-.91-.33-1.82-.48-2.73l.2,0c.15.91.31,1.81.48,2.72Z"/><path class="cls-1" d="M4.08,283.8q-.25-1.37-.48-2.73Z"/><path class="cls-1" d="M2.15,272.26c-.12-.89-.24-1.77-.34-2.66l.19,0c.11.89.23,1.78.35,2.66Z"/><path class="cls-1" d="M2.25,272.25c-.12-.89-.24-1.77-.35-2.66C2,270.48,2.13,271.36,2.25,272.25Z"/><path class="cls-1" d="M14.11,321.36c-1.16-3.24-2.29-6.6-3.33-10h0c-.33-1.06-.65-2.11-1-3.17l.19-.06c.31,1.06.63,2.12,1,3.17h0c1,3.36,2.16,6.71,3.33,10Z"/><path class="cls-1" d="M14.21,321.33q-2.34-6.48-4.3-13.14C11.23,312.63,12.66,317,14.21,321.33Z"/><path class="cls-1" d="M17.87,331.12c-.52-1.27-1-2.53-1.53-3.81l.18-.08c.5,1.28,1,2.55,1.54,3.81Z"/><path class="cls-1" d="M18,331.08c-.51-1.26-1-2.53-1.53-3.81Q17.18,329.19,18,331.08Z"/><path class="cls-1" d="M20,336.23c-.55-1.25-1.09-2.51-1.62-3.77l.18-.08c.53,1.26,1.07,2.52,1.62,3.77Z"/><path class="cls-1" d="M20.13,336.19c-.55-1.25-1.09-2.51-1.62-3.77C19,333.68,19.58,334.94,20.13,336.19Z"/><path class="cls-1" d="M15.86,326.05c-.51-1.32-1-2.64-1.49-4l.19-.06c.48,1.32,1,2.64,1.49,4Z"/><path class="cls-1" d="M16,326c-.5-1.32-1-2.64-1.49-4C14.94,323.38,15.45,324.7,16,326Z"/><path class="cls-1" d="M5.1,289.52c-.19-.92-.37-1.85-.56-2.77l.2,0c.18.93.37,1.85.56,2.77Z"/><path class="cls-1" d="M5.2,289.5c-.19-.92-.38-1.84-.56-2.77C4.82,287.66,5,288.58,5.2,289.5Z"/><path class="cls-1" d="M7.73,300.75c-.19-.74-.37-1.48-.56-2.23L7,297.87l.2-.05.16.66c.18.74.37,1.48.56,2.22Z"/><path class="cls-1" d="M7.83,300.73c-.25-1-.48-1.92-.72-2.88C7.35,298.81,7.58,299.77,7.83,300.73Z"/><path class="cls-1" d="M6.35,295.16c-.18-.77-.35-1.55-.52-2.32l-.11-.49.19,0,.09.4c.18.8.36,1.6.55,2.4Z"/><path class="cls-1" d="M6.45,295.14c-.22-.94-.42-1.87-.63-2.81C6,293.27,6.23,294.2,6.45,295.14Z"/><polygon class="cls-1" points="2.79 276.71 2.58 275.37 2.78 275.34 2.98 276.68 3.2 278.04 3 278.07 2.79 276.71"/><path class="cls-1" d="M3.1,278.05c-.15-.9-.28-1.8-.42-2.7C2.82,276.25,3,277.15,3.1,278.05Z"/><path class="cls-1" d="M9.25,306.29c-.23-.78-.44-1.58-.66-2.37l-.18-.68.19-.05.23.84c.2.74.4,1.47.61,2.21Z"/><path class="cls-1" d="M9.34,306.26c-.29-1-.56-2-.84-3C8.78,304.23,9.05,305.25,9.34,306.26Z"/><path class="cls-1" d="M24.76,346.36c-.64-1.28-1.27-2.57-1.88-3.87l.18-.09c.61,1.3,1.24,2.59,1.88,3.88Z"/><path class="cls-1" d="M24.85,346.32c-.64-1.28-1.27-2.58-1.88-3.88C23.58,343.74,24.21,345,24.85,346.32Z"/><path class="cls-1" d="M30,356.28c-.78-1.4-1.53-2.8-2.27-4.2l.17-.1c.75,1.41,1.5,2.81,2.27,4.2Z"/><path class="cls-1" d="M30,356.23c-.77-1.39-1.52-2.79-2.27-4.2C28.51,353.44,29.26,354.84,30,356.23Z"/><path class="cls-1" d="M27.29,351.35c-.46-.88-.92-1.77-1.37-2.66l-.68-1.34.18-.09.68,1.34c.45.89.91,1.78,1.37,2.66Z"/><path class="cls-1" d="M27.38,351.31c-.69-1.33-1.38-2.66-2.05-4C26,348.65,26.69,350,27.38,351.31Z"/><path class="cls-1" d="M22.34,341.32c-.59-1.26-1.17-2.53-1.74-3.8l.18-.08c.57,1.27,1.15,2.54,1.74,3.8Z"/><path class="cls-1" d="M22.43,341.28c-.59-1.26-1.17-2.53-1.74-3.8C21.26,338.75,21.84,340,22.43,341.28Z"/><path class="cls-2" d="M211.09,478.39A240.73,240.73,0,0,1,30.15,356.63l-.2-.36q-1.15-2.08-2.27-4.2l-.38-.72q-1.05-2-2.05-4l-.49-1c-.64-1.28-1.26-2.58-1.88-3.88l-.54-1.16c-.59-1.26-1.17-2.53-1.74-3.8L20,336.23q-.83-1.87-1.62-3.78l-.55-1.33q-.78-1.9-1.53-3.81l-.48-1.26c-.5-1.32-1-2.64-1.49-4l-.25-.72c-1.53-4.25-3-8.67-4.3-13.14l-.22-.74c-.12-.39-.24-.79-.35-1.19-.22-.74-.42-1.49-.62-2.24l-.44-1.61c-.15-.56-.31-1.12-.45-1.69-.21-.78-.4-1.57-.6-2.36l-.24-1c-.19-.74-.37-1.49-.55-2.23s-.37-1.65-.55-2.47l-.08-.34c-.22-1-.42-1.91-.62-2.83s-.37-1.85-.55-2.77-.39-1.95-.57-2.93l-.48-2.73c-.17-1-.34-2-.5-3s-.28-1.8-.41-2.7-.3-2.07-.44-3.11c-.12-.89-.23-1.77-.34-2.66-.13-1.07-.25-2.14-.37-3.21l0-.32-.24-2.29c-.11-1.11-.2-2.22-.29-3.33l-.05-.54c-.06-.67-.11-1.33-.16-2-.08-1.14-.15-2.29-.22-3.43l0-.87c0-.53-.07-1.07-.09-1.6-.07-1.31-.11-2.63-.15-3.94l0-.82c0-.39,0-.79,0-1.19,0-2-.08-4-.08-6C0,107.71,107.71,0,240.1,0c2,0,4,0,6.08.08l1.38.05,1.62.06c1,0,2,.06,3,.11l2,.12,1.69.11q1.16.06,2.31.15l2.42.2L262.3,1l1.82.16,3.13.35,1.18.13,1.55.18c1.23.15,2.44.32,3.66.49l.9.13,1.24.17,4.05.65,1.68.28c1.45.25,2.89.52,4.33.8l1.33.26c1.54.3,3.07.63,4.6,1l1,.22c1.63.36,3.26.75,4.88,1.15l.63.15q2.6.64,5.18,1.35l.24.07a240.8,240.8,0,0,1,101.48,57.3l.22.21-.3,0a240.16,240.16,0,0,0-29-1.81,242.87,242.87,0,0,0-32.56,2.21c.41.54.82,1.1,1.21,1.67,9.14,13.5,8,30.27-2.49,37.38a19.1,19.1,0,0,1-10.77,3.2c-9.16,0-18.68-5.66-24.85-14.77a34.93,34.93,0,0,1-6.14-17.52,239.17,239.17,0,0,0-51.09,24A32.1,32.1,0,0,1,200,141.25,239.13,239.13,0,0,0,136.2,304.1c0,66.47,26.63,128.31,75,174.12l.22.21ZM91.87,319.63a20.06,20.06,0,0,0-14.61,5.63c-4.51,4.51-6.41,11.09-5.35,18.54a37.75,37.75,0,0,0,11,20.91C90.09,371.89,99.14,376,107.76,376a20.1,20.1,0,0,0,14.61-5.63c4.51-4.51,6.41-11.09,5.35-18.54s-5-14.89-11-20.92C109.54,323.74,100.49,319.63,91.87,319.63ZM112.1,280.2a7.76,7.76,0,1,0,5.61,2.19A7.9,7.9,0,0,0,112.1,280.2Zm-36-88c-15.38,0-27.9,14.31-27.9,31.9S60.72,256,76.1,256,104,241.69,104,224.1,91.48,192.2,76.1,192.2Zm148-104c-.55,0-1.1,0-1.64,0a31.79,31.79,0,0,0-30.22,30.22c0,.54,0,1.09,0,1.64a31.84,31.84,0,0,0,7.87,20.78,241.53,241.53,0,0,1,49-40.47A31.65,31.65,0,0,0,224.1,88.2ZM122.21,92.67a25.62,25.62,0,0,0-17.84,7.7c-9.35,9.35-10.3,23.61-2.13,31.79a19.52,19.52,0,0,0,14,5.57,26.41,26.41,0,0,0,25.49-24,19.1,19.1,0,0,0-17.1-20.92,20.78,20.78,0,0,0-2.37-.1Zm197.6-39.14a18.56,18.56,0,0,0-10.57,3.14c-5.8,3.93-8.88,11-8.46,19.45a239.61,239.61,0,0,1,42.31-9.8C336.89,58.31,328.2,53.53,319.81,53.53ZM208.07,32.3a7.66,7.66,0,0,0-7.87,7.44v.36a8.09,8.09,0,0,0,2.29,5.61A7.91,7.91,0,0,0,216,40.1a8.31,8.31,0,0,0-2.29-5.61A8.1,8.1,0,0,0,208.07,32.3Z"/><path class="cls-2" d="M211.1,478.29C115.61,387.94,110.65,237.56,200,141.1a32,32,0,0,0,49.29-40.76,238.08,238.08,0,0,1,51.33-24.1,35,35,0,0,0,6.13,17.59c9.12,13.47,25,18.64,35.49,11.55s11.58-23.77,2.46-37.24c-.42-.62-.86-1.22-1.31-1.81a237.62,237.62,0,0,1,61.74-.42A239.74,239.74,0,0,0,303.66,8.63l-.24-.07c-1.72-.47-3.44-.92-5.18-1.35l-.62-.15c-1.62-.4-3.25-.79-4.88-1.15l-1-.22c-1.53-.33-3.06-.66-4.6-1l-1.33-.25c-1.44-.28-2.88-.55-4.32-.8l-1.68-.28c-1.35-.22-2.7-.45-4.05-.65l-2-.28c-1.26-.18-2.51-.35-3.78-.51-.78-.1-1.57-.18-2.35-.27l-3.51-.39c-.9-.09-1.81-.16-2.71-.24-1.07-.09-2.14-.19-3.21-.27s-2.08-.14-3.12-.2-1.9-.13-2.86-.18C251,.34,249.72.31,248.47.26L246.18.18q-3-.07-6.08-.08C107.55.1.1,107.55.1,240.1q0,3,.08,6c0,.67.05,1.34.07,2,0,1.32.08,2.63.15,3.94,0,.8.09,1.59.14,2.38.07,1.18.13,2.35.22,3.52.06.85.14,1.69.21,2.53.09,1.11.18,2.22.29,3.33.09.87.18,1.74.28,2.61.12,1.07.24,2.14.37,3.21.11.89.22,1.77.34,2.66s.28,2.07.44,3.1.27,1.8.41,2.7.33,2,.5,3l.48,2.73c.18,1,.37,2,.57,2.93s.36,1.85.55,2.77.41,1.89.62,2.83.41,1.87.63,2.81.44,1.81.66,2.71.47,1.92.72,2.88.45,1.66.68,2.49c.27,1,.54,2,.83,3,.19.65.39,1.29.58,1.93,1.31,4.44,2.74,8.81,4.29,13.14.09.24.17.48.25.72.49,1.33,1,2.65,1.5,4,.16.41.31.83.47,1.25.5,1.28,1,2.54,1.54,3.81l.54,1.34c.53,1.26,1.07,2.52,1.62,3.77.19.43.37.86.56,1.28q.86,1.92,1.74,3.81l.54,1.16c.62,1.3,1.24,2.59,1.88,3.88.16.33.32.65.49,1,.67,1.34,1.35,2.68,2.05,4,.12.25.25.49.38.73q1.11,2.1,2.27,4.19c.06.12.13.24.2.36A240.12,240.12,0,0,0,211.1,478.29Zm98.08-421.7c10-6.76,24.82-2.29,34.09,9.8a238.4,238.4,0,0,0-42.59,9.87c-.43-8.12,2.39-15.53,8.5-19.67ZM202.42,34.42a8,8,0,1,1,0,11.36,8.2,8.2,0,0,1-2.32-5.68,8.11,8.11,0,0,1,2.32-5.68Zm-10.28,84a32,32,0,0,1,30.31-30.31c.55,0,1.1,0,1.65,0a31.83,31.83,0,0,1,25.07,12.34A240.58,240.58,0,0,0,200.07,141a31.79,31.79,0,0,1-8-20.93c0-.55,0-1.1,0-1.65ZM104.3,100.3c9.4-9.4,23.7-10.36,31.93-2.13s7.27,22.53-2.13,31.93-23.7,10.36-31.93,2.13-7.27-22.52,2.13-31.93ZM120.1,288a8,8,0,1,1-2.32-5.68A8.4,8.4,0,0,1,120.1,288Zm-72-63.9c0-17.67,12.54-32,28-32s28,14.33,28,32-12.54,32-28,32S48.1,241.77,48.1,224.1ZM77.19,325.19c9.37-9.38,27.1-6.84,39.59,5.65s15,30.23,5.66,39.6-27.1,6.84-39.6-5.65S67.81,334.56,77.19,325.19Z"/><ellipse class="cls-3" cx="76.1" cy="224.1" rx="28.1" ry="32.1"/><ellipse class="cls-3" cx="76.1" cy="224.1" rx="28" ry="32"/><path class="cls-3" d="M107.76,376.2c-8.67,0-17.78-4.14-25-11.35a37.86,37.86,0,0,1-11-21c-1.08-7.51.84-14.15,5.4-18.71a20.29,20.29,0,0,1,14.75-5.68c8.67,0,17.78,4.13,25,11.34a37.9,37.9,0,0,1,11,21c1.08,7.51-.84,14.15-5.4,18.71A20.34,20.34,0,0,1,107.76,376.2Z"/><ellipse class="cls-3" cx="99.82" cy="347.81" rx="24" ry="32" transform="translate(-216.7 172.45) rotate(-45)"/><path class="cls-2" d="M366,360.92a14.6,14.6,0,0,1-10.64-4.1c-6.78-6.77-4.95-19.62,4.07-28.64,5.19-5.2,11.75-8.18,18-8.18a14.69,14.69,0,0,1,10.64,4.11c6.77,6.77,4.95,19.62-4.07,28.64C378.83,357.94,372.27,360.92,366,360.92Z"/><ellipse class="cls-2" cx="371.74" cy="340.46" rx="23.03" ry="17.27" transform="translate(-131.86 362.58) rotate(-45)"/><path class="cls-2" d="M192.1,200.2a8,8,0,0,1-8.1-7.94v-.16a8.21,8.21,0,0,1,13.85-5.75,8.1,8.1,0,0,1-5.75,13.85Z"/><path class="cls-2" d="M192.1,200.1a8,8,0,1,0-5.68-13.68,8.25,8.25,0,0,0-2.32,5.68,7.92,7.92,0,0,0,7.84,8Z"/><path class="cls-3" d="M112.1,296.1a8.05,8.05,0,1,1,0-16.1h0a8.05,8.05,0,1,1,0,16.1Z"/><path class="cls-3" d="M106.42,282.32a8,8,0,1,0,11.36,0A8.4,8.4,0,0,0,106.42,282.32Z"/><path class="cls-2" d="M320.1,296.2a8.13,8.13,0,0,1-5.75-13.85,8.47,8.47,0,0,1,11.5,0,8.1,8.1,0,0,1-5.75,13.85Z"/><path class="cls-2" d="M314.42,282.42a8,8,0,1,0,11.36,0A8.38,8.38,0,0,0,314.42,282.42Z"/><path class="cls-2" d="M384.1,160.2a8.31,8.31,0,0,1-5.75-2.35A8.49,8.49,0,0,1,376,152.1a8.08,8.08,0,0,1,2.43-5.75,7.85,7.85,0,0,1,5.66-2.22,8.26,8.26,0,0,1,5.76,2.22,8.1,8.1,0,0,1-5.75,13.85Z"/><path class="cls-2" d="M384.1,160.1a8,8,0,0,0,5.68-13.68,8.36,8.36,0,0,0-11.28,0,8,8,0,0,0-2.4,5.68,8.4,8.4,0,0,0,2.32,5.68A8.31,8.31,0,0,0,384.1,160.1Z"/><path class="cls-3" d="M208.1,48.2a8.46,8.46,0,0,1-5.75-2.35A8.33,8.33,0,0,1,200,40.1a7.85,7.85,0,0,1,7.71-8h.36a8.3,8.3,0,0,1,5.78,2.25,8.22,8.22,0,0,1,0,11.5A8.49,8.49,0,0,1,208.1,48.2Z"/><path class="cls-3" d="M208.1,48.1a7.92,7.92,0,0,0,8-7.84V40.1a8,8,0,0,0-13.68-5.68,8.11,8.11,0,0,0-2.32,5.68,8.2,8.2,0,0,0,2.32,5.68A8.4,8.4,0,0,0,208.1,48.1Z"/><path class="cls-2" d="M176.1,392.2a8.13,8.13,0,0,1-5.75-13.85,8.47,8.47,0,0,1,11.5,0,8.1,8.1,0,0,1-5.75,13.85Z"/><path class="cls-2" d="M170.42,378.42a8,8,0,1,0,11.36,0A8.38,8.38,0,0,0,170.42,378.42Z"/><circle class="cls-2" cx="228.1" cy="300.1" r="44.1"/><circle class="cls-2" cx="228.1" cy="300.1" r="44"/><circle class="cls-2" cx="312.1" cy="192.1" r="24.1"/><circle class="cls-2" cx="312.1" cy="192.1" r="24"/><path class="cls-2" d="M256.18,440.72c-15.3,0-27.66-7.77-30.76-19.33-1.95-7.28-.06-15.12,5.3-22.07s13.57-12.18,23.1-14.73A47.1,47.1,0,0,1,266,383c15.3,0,27.66,7.77,30.76,19.33,1.95,7.28.07,15.12-5.3,22.08s-13.56,12.17-23.09,14.73A47.66,47.66,0,0,1,256.18,440.72Z"/><ellipse class="cls-2" cx="261.11" cy="411.84" rx="36.85" ry="28.11" transform="matrix(0.97, -0.26, 0.26, 0.97, -97.65, 81.57)"/><path class="cls-2" d="M391.21,268.07a17.68,17.68,0,0,1-2.82-.23c-6-1-11.09-5-14.39-11.35a35.7,35.7,0,0,1-3.07-22.14c2.48-15,13-26.35,24.47-26.35a17.68,17.68,0,0,1,2.82.23c12.34,2,20.17,17.06,17.46,33.5C413.21,256.74,402.68,268.07,391.21,268.07Z"/><ellipse class="cls-2" cx="393.31" cy="238.03" rx="30.1" ry="22.58" transform="translate(94.46 587.38) rotate(-80.64)"/><path class="cls-3" d="M200,141.09a32,32,0,0,1-8-21c0-.55,0-1.1,0-1.65A32,32,0,0,1,222.45,88c.55,0,1.1,0,1.65,0a31.9,31.9,0,0,1,25.15,12.37l.07.09-.1.06a241,241,0,0,0-49.08,40.58l-.07.08Z"/><path class="cls-3" d="M200.07,141a240.58,240.58,0,0,1,49.1-40.59A31.83,31.83,0,0,0,224.1,88.1c-.55,0-1.1,0-1.65,0a32,32,0,0,0-30.31,30.31c0,.55,0,1.1,0,1.65A31.79,31.79,0,0,0,200.07,141Z"/><path class="cls-3" d="M116.19,137.92a19.3,19.3,0,0,1-19.76-18.84,21,21,0,0,1,.09-2.38,26.61,26.61,0,0,1,25.69-24.23A19.31,19.31,0,0,1,142,111.31a19,19,0,0,1-.09,2.39A26.6,26.6,0,0,1,116.19,137.92Z"/><ellipse class="cls-3" cx="119.2" cy="115.2" rx="24.08" ry="21.07" transform="translate(-46.54 118.03) rotate(-45)"/><path class="cls-3" d="M300.58,76.26c-.45-8.57,2.66-15.77,8.54-19.75a18.75,18.75,0,0,1,10.69-3.18c8.5,0,17.3,4.86,23.54,13l.11.14-.17,0a238.63,238.63,0,0,0-42.57,9.86l-.13.05Z"/><path class="cls-3" d="M300.68,76.26a238.4,238.4,0,0,1,42.59-9.87c-9.27-12.09-24.1-16.56-34.09-9.8C303.07,60.73,300.25,68.14,300.68,76.26Z"/></g></g></g></g></svg>