<svg xmlns="http://www.w3.org/2000/svg" viewBox="0 0 437.371 226.61"><title>red-blood-cell_3</title><g id="Layer_2" data-name="Layer 2"><g id="Layer_1-2" data-name="Layer 1"><path d="M437.371,113.361c0,62.54-97.821,113.249-218.5,113.249S.363,175.9.363,113.361H4.227a63.162,63.162,0,0,1-2.9-10.659C11.688,45.172,105.112.112,218.867.112S426.046,45.172,436.412,102.7a63.256,63.256,0,0,1-2.9,10.659Z" fill="#d84e4e"/><path d="M437.008,113.249c0,62.54-97.82,113.249-218.5,113.249S0,175.789,0,113.249A59.448,59.448,0,0,1,.959,102.59C11.325,160.121,104.749,205.181,218.5,205.181s207.179-45.06,217.545-102.591A59.357,59.357,0,0,1,437.008,113.249Z" fill="#d84e4e"/><ellipse cx="218.504" cy="102.59" rx="217.545" ry="102.59" fill="#ff5f5f"/><path d="M363.33,112.023c-21.771,21.744-77.809,37.2-143.493,37.2-68.589,0-126.626-16.84-146.158-40.077a116.576,116.576,0,0,1,12.6-10.712c27.686-20.678,79.274-45.139,134.886-45.139,61.368,0,111.091,28.405,134.86,51.055A90.911,90.911,0,0,1,363.33,112.023Z" fill="#c45353"/></g></g></svg>