<svg xmlns="http://www.w3.org/2000/svg" viewBox="0 0 447 453.87"><defs><style>.cls-1{fill:#fed370;}.cls-2{fill:#fc5921;}.cls-3{fill:#fda736;}.cls-4{fill:#fd8f07;}.cls-5{fill:#fd7504;}</style></defs><title>sun</title><g id="Layer_2" data-name="Layer 2"><g id="Layer_1-2" data-name="Layer 1"><path class="cls-1" d="M224.38.63c11.18,32.7,54,40.25,75.7,13.35a.93.93,0,0,1,1.65.6c-.68,34.55,37,56.29,66.56,38.43a.93.93,0,0,1,1.35,1.13C357.19,86.38,385.14,119.69,419,113a.94.94,0,0,1,.89,1.53c-22.73,26-7.86,66.89,26.29,72.22a.93.93,0,0,1,.3,1.73c-30.26,16.69-30.26,60.18,0,76.86a.93.93,0,0,1-.3,1.74c-34.15,5.33-49,46.2-26.29,72.23a.93.93,0,0,1-.89,1.52c-33.9-6.67-61.85,26.65-49.4,58.88a.93.93,0,0,1-1.35,1.13c-29.58-17.86-67.24,3.88-66.56,38.43a.93.93,0,0,1-1.65.61c-21.69-26.91-64.52-19.36-75.7,13.34a.93.93,0,0,1-1.76,0c-11.18-32.7-54-40.25-75.69-13.34a.94.94,0,0,1-1.66-.61c.68-34.55-37-56.29-66.56-38.43a.93.93,0,0,1-1.35-1.13c12.45-32.23-15.5-65.55-49.4-58.88a.93.93,0,0,1-.88-1.52c22.72-26,7.85-66.9-26.29-72.23a.93.93,0,0,1-.31-1.74c30.26-16.68,30.26-60.17,0-76.86a.93.93,0,0,1,.31-1.73c34.14-5.33,49-46.2,26.29-72.22A.93.93,0,0,1,28,113c33.9,6.67,61.86-26.64,49.4-58.88A.93.93,0,0,1,78.71,53c29.58,17.86,67.24-3.88,66.56-38.43a.93.93,0,0,1,1.66-.6c21.68,26.9,64.51,19.35,75.69-13.35A.93.93,0,0,1,224.38.63Z"/><path class="cls-2" d="M442.9,271.93h0Zm0,0h0Z"/><path class="cls-3" d="M223.5,393.22c-91.69,0-166.28-74.59-166.28-166.29S131.81,60.65,223.5,60.65s166.29,74.6,166.29,166.28S315.19,393.22,223.5,393.22Z"/><path class="cls-4" d="M373.73,226.93a150.31,150.31,0,0,1-176.16,148,146.15,146.15,0,0,1-17.16-4,150.23,150.23,0,0,1-69.64-44.64,150.38,150.38,0,0,1-37.5-99.32A150.27,150.27,0,0,1,251,79.23a148.49,148.49,0,0,1,17,4.18,150.35,150.35,0,0,1,105.7,143.52Z"/><path class="cls-5" d="M373.73,226.93A150.26,150.26,0,0,1,203.67,375.85a150.24,150.24,0,0,0,0-297.83A150.33,150.33,0,0,1,373.73,226.93Z"/><path class="cls-2" d="M229.17,207.89,111.27,325.8c-.16.15-.33.31-.5.45a148.42,148.42,0,0,1-9.38-11.8L218.57,197.29a7.5,7.5,0,1,1,10.6,10.6Z"/><path class="cls-2" d="M216.07,296.71a7.5,7.5,0,0,1-5.31-12.8l28.58-28.58A7.5,7.5,0,0,1,250,265.93l-28.58,28.58A7.44,7.44,0,0,1,216.07,296.71Z"/><path class="cls-2" d="M268,83.41,158.72,192.7a7.49,7.49,0,0,1-10.6-10.59L251,79.23A148.49,148.49,0,0,1,268,83.41Z"/><path class="cls-2" d="M273,305a7.5,7.5,0,0,1-5.3-12.8l11.66-11.67A7.5,7.5,0,0,1,290,291.11l-11.67,11.67A7.44,7.44,0,0,1,273,305Z"/><path class="cls-2" d="M305.71,272.31a7.5,7.5,0,0,1-5.31-12.8L335.91,224a7.5,7.5,0,1,1,10.61,10.61L311,270.11A7.46,7.46,0,0,1,305.71,272.31Z"/><path class="cls-2" d="M340.94,133.25l-55.58,55.58a7.52,7.52,0,0,1-10.61,0,7.51,7.51,0,0,1,0-10.6L331,122A149.9,149.9,0,0,1,340.94,133.25Z"/><path class="cls-2" d="M210.85,361.66l-13.28,13.27a146.15,146.15,0,0,1-17.16-4l19.83-19.84a7.5,7.5,0,1,1,10.61,10.61Z"/></g></g></svg>