<?xml version="1.0" encoding="UTF-8" standalone="no"?><!DOCTYPE svg PUBLIC "-//W3C//DTD SVG 1.1//EN" "http://www.w3.org/Graphics/SVG/1.1/DTD/svg11.dtd"><svg width="100%" height="100%" viewBox="0 0 942 237" version="1.1" xmlns="http://www.w3.org/2000/svg" xmlns:xlink="http://www.w3.org/1999/xlink" xml:space="preserve" xmlns:serif="http://www.serif.com/" style="fill-rule:evenodd;clip-rule:evenodd;stroke-linecap:round;stroke-linejoin:round;stroke-miterlimit:1.5;"><rect id="Artboard1" x="0" y="0" width="941.333" height="236.158" style="fill:none;"/><clipPath id="_clip1"><rect x="0" y="0" width="941.333" height="236.158"/></clipPath><g clip-path="url(#_clip1)"><g><path d="M99.067,156.209l1.226,-4.4c7.947,-42.96 15.12,-86.107 18.267,-129.787c2,-7.706 21.947,-10.986 24.88,-3.893c1.2,2.933 -1.787,13.28 -2.427,16.987c-9.04,53.04 -15.306,106.24 -21.866,159.626c-0.667,5.494 -2.214,22.667 -5.36,26.134c-7.174,7.893 -16.507,5.333 -20.907,-3.707l-44.507,-150l-21.28,154.56c-5.84,13.493 -23.706,16.613 -24.426,-1.76c11.546,-56.027 18.693,-112.88 29.146,-169.12c1.84,-9.867 3.387,-21.813 6.107,-31.28c1.36,-4.72 3.387,-8.427 8.747,-8.96c11.653,-1.12 15.173,10.613 17.813,19.547c7.627,25.786 12.747,52.906 19.947,78.906c4.4,15.867 9.786,31.387 14.613,47.12l0.027,0.027Z" style="fill:#284f61;fill-rule:nonzero;"/><path d="M272.587,177.968c-5.066,15.307 -6.506,31.547 -10.106,47.2c-0.4,1.76 -0.827,4.854 -1.6,6.267c-3.12,5.573 -19.254,5.44 -18.4,-3.147l37.226,-211.173c3.413,-16.213 18.666,-20.133 27.413,-4.96c2.613,4.534 3.76,10.133 4.96,15.2c6.08,25.547 9.92,54.027 14.347,80.08c6.533,38.373 12.666,76.933 18.32,115.413c-4.134,10.347 -18.08,10.16 -20.987,-1.093l-7.467,-48.587l-43.706,4.827l-0,-0.027Zm40.72,-22.746l-19.654,-106.24l-18.213,110.666l37.867,-4.426Z" style="fill:#284f61;fill-rule:nonzero;"/><path d="M189.038,30.833c-4.086,26.571 -3.762,53.583 -6.191,80.307c10.957,2.278 22.283,-0.732 33.23,-0.214c6.541,0.316 13.71,2.594 16.04,9.427c1.762,5.164 0.044,11.041 -5.804,11.99c-7.629,1.253 -16.377,-0.004 -24.058,0.023c-6.081,0.02 -12.154,0.44 -18.236,0.407c-1.093,-0.004 -2.873,-0.9 -3.44,0.019l-8.633,68.088c4.857,0.139 9.663,0.359 14.541,0.23c8.796,-0.264 31.208,-3.772 35.872,6.266c1.591,3.407 0.675,6.787 -1.829,9.48c-4.642,5.058 -8.489,3.511 -14.481,3.957c-15.632,1.153 -37.369,3.794 -52.303,-1.202c-4.11,-1.381 -5.705,-2.415 -5.697,-7.162c0.132,-29.423 9.369,-63.516 12.774,-93.301c3.405,-29.784 3.637,-59.556 7.635,-89.059c0.484,-3.664 1.468,-14.007 3.498,-16.423c0.52,-0.624 1.202,-1.172 1.942,-1.508c2.455,0.029 5.372,-0.779 7.663,-0.88c11.323,-0.61 26.059,-1.291 37.352,-0.78c4.005,0.183 14.008,1.494 15.984,5.427c1.976,3.933 -1.337,13.898 -5.85,14.899c-5.576,1.237 -15.478,-0.344 -21.508,-0.458c-6.03,-0.087 -12.297,-0.063 -18.449,0.386l-0.052,0.081Z" style="fill:#284f61;fill-rule:nonzero;"/><path d="M375.147,4.926c3.866,-0.64 11.2,-0.453 14.373,2.107c4.16,3.387 3.653,11.602 3.493,16.616c-1.093,30.133 -2.213,60.293 -2.986,90.479c-0.774,30.16 -0.614,60.294 -0.88,90.4c0.693,3.28 5.786,2.48 8.533,2.347c12.907,-0.613 25.76,-5.147 38.827,-3.947c11.386,1.04 14.986,11.814 4.186,16.96l-69.12,9.067c-3.013,0.56 -6.186,-0.8 -6.906,-3.893c-0.907,-3.787 -0.294,-13.6 -0.24,-18c0.826,-48.054 4.56,-96.08 5.893,-144.107c0.453,-16.667 -2.373,-33.867 -1.467,-49.68c0.267,-4.8 0.454,-7.389 6.294,-8.375l-0,0.026Z" style="fill:#284f61;fill-rule:nonzero;"/></g><g><path d="M902.606,157.372c0.936,0.078 0.383,-1.054 0.299,-1.583c-6.903,-43.314 -8.797,-89.662 -16.766,-133.576c-0.967,-15.307 18.952,-20.452 22.896,-0.693c0.796,3.986 0.446,9.43 0.949,13.71c6.119,49.705 11.697,103.61 20.181,153.002c1.623,9.529 5.404,21.633 5.819,30.932c0.557,13.109 -13.389,13.344 -19.967,4.926l-84.505,-155.568l20.522,157.105c-3.101,18.288 -20.956,15.414 -24.119,-1.805c-2.84,-15.388 -2.541,-32.845 -4.003,-48.541c-3.857,-41.903 -9.575,-83.642 -13.139,-125.58c-0.786,-9.207 -2.493,-21.561 -2.414,-30.394c0.079,-11.501 12.255,-9.389 18.347,-3.784c5.215,4.805 14.573,24.877 18.37,32.233c9.75,18.887 18.58,38.255 28.433,57.059c9.288,17.754 19.495,34.999 29.098,52.584l-0.001,-0.027Z" style="fill:#284f61;fill-rule:nonzero;"/><path d="M689.372,9.126c11.386,-0.16 12.986,6.803 13.893,15.603c4.987,49.706 -5.627,108.08 8.613,156.16c4.187,14.186 17.2,37.066 34.64,23.813c18.774,-14.293 18.854,-65.627 19.707,-87.52c0.987,-25.707 2.16,-52.48 -0.48,-78.187c-0.747,-7.36 -4.32,-16.669 -2.853,-23.282c0.853,-3.84 8.053,-5.414 11.386,-5.227c13.334,0.8 13.2,7.389 14.08,17.683c2.4,28.106 1.627,56.906 0.96,85.066c-0.906,39.254 2.054,126.347 -60.08,114.24c-41.2,-8.026 -42.48,-56.133 -45.146,-89.626c-2.774,-35.04 -4.32,-70.134 -4.907,-105.28c-0.107,-6.72 -1.173,-9.203 -0.533,-16.003c0.506,-5.333 5.893,-7.387 10.72,-7.467l-0,0.027Z" style="fill:#284f61;fill-rule:nonzero;"/><path d="M603.185,21.528l5.973,52.08l42,0.187c8.4,2.08 13.467,14.16 2.827,17.36c-12.267,3.68 -32.32,-0.16 -44.187,1.2c-3.253,0.373 -2.8,1.867 -2.693,4.693c0.72,17.334 3.787,35.6 4.907,53.12c0.773,12.054 0.96,24.32 1.466,36.427c0.4,9.947 1.92,21.627 1.014,31.467c-0.72,8 -9.787,10.533 -16.374,7.466c-4.16,-1.946 -4.613,-4.853 -5.226,-9.04c-2.747,-18.613 -1.174,-39.546 -2,-58.48c-1.974,-44.32 -10.427,-88.853 -11.84,-132.773c-0.134,-3.813 -0.64,-13.787 1.173,-16.587c3.787,-5.84 20.24,-4 26.64,-4.346c9.787,-0.534 38.987,-4.24 46.853,1.493c2.96,2.16 5.734,7.813 3.894,11.28c-2.507,4.667 -23.947,3.413 -28.587,4.48l-25.84,-0l0,-0.027Z" style="fill:#284f61;fill-rule:nonzero;"/></g><path d="M520.606,173.585c13.982,-0 18.061,15.81 18.061,32c-0,16.189 -14.018,24 -28,24c-13.982,-0 -20,-13.144 -20,-29.333c-0,-16.19 15.957,-26.667 29.939,-26.667Z" style="fill:#284f61;"/></g></svg>