<?xml version="1.0" encoding="UTF-8" standalone="no"?>
<!DOCTYPE svg PUBLIC "-//W3C//DTD SVG 1.1//EN" "http://www.w3.org/Graphics/SVG/1.1/DTD/svg11.dtd">
<svg width="100%" height="100%" viewBox="0 0 50 50" version="1.1" xmlns="http://www.w3.org/2000/svg" xmlns:xlink="http://www.w3.org/1999/xlink" xml:space="preserve" xmlns:serif="http://www.serif.com/" style="fill-rule:evenodd;clip-rule:evenodd;stroke-linejoin:round;stroke-miterlimit:2;">
    <path d="M47.508,2.594L32.105,12.355L34.637,6.809L31.891,8.441C31.082,8.922 12.023,20.262 6.594,25.594C1.711,30.477 1.711,38.422 6.594,43.309C8.957,45.672 12.105,46.977 15.449,46.977C18.797,46.977 21.941,45.672 24.301,43.316C28.547,39.172 37.484,24.051 37.863,23.406L39.297,20.977L33.676,23.07L47.508,2.594ZM15,41C11.699,41 9,38.301 9,35C9,31.699 11.699,29 15,29C18.301,29 21,31.699 21,35C21,38.301 18.301,41 15,41Z" style="fill:white;fill-rule:nonzero;"/>
</svg>
