<?xml version="1.0" encoding="UTF-8" standalone="no"?>
<!DOCTYPE svg PUBLIC "-//W3C//DTD SVG 1.1//EN" "http://www.w3.org/Graphics/SVG/1.1/DTD/svg11.dtd">
<svg width="100%" height="100%" viewBox="0 0 9 9" version="1.1" xmlns="http://www.w3.org/2000/svg" xmlns:xlink="http://www.w3.org/1999/xlink" xml:space="preserve" xmlns:serif="http://www.serif.com/" style="fill-rule:evenodd;clip-rule:evenodd;stroke-linecap:round;stroke-linejoin:round;stroke-miterlimit:1.5;">
    <g transform="matrix(1,0,0,1,-14019.8,-28153.3)">
        <g transform="matrix(-1,-1.22465e-16,1.22465e-16,-1,27891.1,56191.6)">
            <path d="M13863.5,28033.5L13863.5,28030.4L13866.5,28030.4" style="fill:none;stroke:rgb(239,255,255);stroke-width:1px;"/>
        </g>
        <g transform="matrix(1,-2.10602e-16,2.10602e-16,1,156.825,123.339)">
            <path d="M13863.5,28033.5L13863.5,28030.4L13866.5,28030.4" style="fill:none;stroke:rgb(239,255,255);stroke-width:1px;"/>
        </g>
        <g transform="matrix(-1,-1.22465e-16,1.22465e-16,-1,27891.1,56191.6)">
            <path d="M13863.5,28030.4L13866.4,28033.4" style="fill:none;stroke:rgb(239,255,255);stroke-width:1px;"/>
        </g>
        <g transform="matrix(1,-2.10602e-16,2.10602e-16,1,156.825,123.339)">
            <path d="M13863.5,28030.4L13866.4,28033.4" style="fill:none;stroke:rgb(239,255,255);stroke-width:1px;"/>
        </g>
    </g>
</svg>
