<?xml version="1.0" encoding="UTF-8" standalone="no"?>
<!DOCTYPE svg PUBLIC "-//W3C//DTD SVG 1.1//EN" "http://www.w3.org/Graphics/SVG/1.1/DTD/svg11.dtd">
<svg width="100%" height="100%" viewBox="0 0 1422 1351" version="1.1" xmlns="http://www.w3.org/2000/svg" xmlns:xlink="http://www.w3.org/1999/xlink" xml:space="preserve" xmlns:serif="http://www.serif.com/" style="fill-rule:evenodd;clip-rule:evenodd;stroke-linejoin:round;stroke-miterlimit:2;">
    <g transform="matrix(1,0,0,1,-3.16664,-3.51664)">
        <g transform="matrix(4.16667,0,0,4.16667,0,0)">
            <path d="M311.689,88.603L311.689,42.042C311.689,42.042 296.816,42.47 277.947,47.775C251.382,18.924 213.301,0.844 170.993,0.844C128.77,0.844 90.758,18.853 64.201,47.602C45.626,42.461 31.075,42.042 31.075,42.042L31.075,88.603C12.793,100.882 0.76,121.748 0.76,145.426C0.76,168.961 12.651,189.72 30.75,202.027C36.508,270.845 97.094,324.988 170.993,324.988C244.697,324.988 305.156,271.129 311.184,202.571C329.747,190.337 342.003,169.317 342.003,145.426C342.003,121.748 329.971,100.882 311.689,88.603ZM170.993,28.828C201.506,28.828 229.396,39.979 250.876,58.396C246.144,60.878 241.466,63.741 236.975,67.029C217.982,54.683 195.335,47.483 170.993,47.483C146.828,47.483 124.334,54.58 105.426,66.762C100.893,63.475 96.174,60.615 91.408,58.142C112.846,39.874 140.621,28.828 170.993,28.828Z" style="fill:rgb(59,74,158);fill-rule:nonzero;"/>
        </g>
        <g transform="matrix(4.16667,0,0,4.16667,0,0)">
            <path d="M237.703,99.071C219.023,85.708 195.961,77.799 170.993,77.799C146.025,77.799 122.964,85.708 104.283,99.071C96.3,91.466 80.221,78.695 58.281,73.913L58.281,187.401C58.281,247.934 108.746,297.003 170.993,297.003C233.244,297.003 283.705,247.934 283.705,187.401L283.705,73.913C261.767,78.695 245.686,91.466 237.703,99.071Z" style="fill:white;fill-rule:nonzero;"/>
        </g>
        <g transform="matrix(4.16667,0,0,4.16667,0,0)">
            <path d="M136.791,235.596C145.342,246.478 171.771,256.582 171.771,256.582C171.771,256.582 197.421,246.478 205.973,235.596L136.791,235.596Z" style="fill:rgb(59,74,158);fill-rule:nonzero;"/>
        </g>
        <g transform="matrix(4.16667,0,0,4.16667,0,0)">
            <path d="M197.421,262.024C197.421,262.024 189.141,266.688 171.771,266.688C154.4,266.688 144.564,262.024 144.564,262.024C139.901,264.357 136.791,274.461 136.791,274.461C143.787,280.68 163.264,283.79 171.771,283.79C180.277,283.79 198.2,280.68 205.196,274.461C205.196,274.461 202.085,264.357 197.421,262.024Z" style="fill:rgb(59,74,158);fill-rule:nonzero;"/>
        </g>
        <g transform="matrix(4.16667,0,0,4.16667,0,0)">
            <path d="M86.265,183.514L127.464,184.292C127.464,184.292 159.334,180.406 162.443,221.604L116.582,220.049C116.582,220.049 90.152,216.94 86.265,183.514Z" style="fill:rgb(137,189,96);fill-rule:nonzero;"/>
        </g>
        <g transform="matrix(4.16667,0,0,4.16667,0,0)">
            <path d="M178.767,221.604L219.964,220.827C219.964,220.827 251.835,224.713 254.944,183.514L209.082,185.07C209.082,185.07 182.653,188.179 178.767,221.604Z" style="fill:rgb(137,189,96);fill-rule:nonzero;"/>
        </g>
    </g>
</svg>
