<?xml version="1.0" encoding="UTF-8" standalone="no"?>
<!DOCTYPE svg PUBLIC "-//W3C//DTD SVG 1.1//EN" "http://www.w3.org/Graphics/SVG/1.1/DTD/svg11.dtd">
<svg width="100%" height="100%" viewBox="0 0 18 21" version="1.1" xmlns="http://www.w3.org/2000/svg" xmlns:xlink="http://www.w3.org/1999/xlink" xml:space="preserve" xmlns:serif="http://www.serif.com/" style="fill-rule:evenodd;clip-rule:evenodd;stroke-linejoin:round;stroke-miterlimit:2;">
    <g transform="matrix(1,0,0,1,-404,-25124.5)">
        <path d="M414.514,25128.3C414.194,25128.5 414,25128.8 414,25129.2C414,25131.3 414,25138 414,25140C414,25140.4 414.174,25140.7 414.466,25140.9C415.576,25141.7 418.419,25143.7 420.278,25145C420.612,25145.2 421.049,25145.2 421.411,25145.1C421.773,25144.9 422,25144.5 422,25144.1C422,25139.7 422,25129.8 422,25125.6C422,25125.2 421.784,25124.8 421.436,25124.6C421.088,25124.4 420.663,25124.4 420.326,25124.6C418.494,25125.8 415.666,25127.5 414.514,25128.3ZM412,25129.9C412,25128.8 411.104,25127.9 410,25127.9L406,25127.9C404.896,25127.9 404,25128.8 404,25129.9L404,25139.9C404,25141 404.896,25141.9 406,25141.9L410,25141.9C411.104,25141.9 412,25141 412,25139.9L412,25129.9Z" style="fill:url(#_Linear1);"/>
        <clipPath id="_clip2">
            <path d="M414.514,25128.3C414.194,25128.5 414,25128.8 414,25129.2C414,25131.3 414,25138 414,25140C414,25140.4 414.174,25140.7 414.466,25140.9C415.576,25141.7 418.419,25143.7 420.278,25145C420.612,25145.2 421.049,25145.2 421.411,25145.1C421.773,25144.9 422,25144.5 422,25144.1C422,25139.7 422,25129.8 422,25125.6C422,25125.2 421.784,25124.8 421.436,25124.6C421.088,25124.4 420.663,25124.4 420.326,25124.6C418.494,25125.8 415.666,25127.5 414.514,25128.3ZM412,25129.9C412,25128.8 411.104,25127.9 410,25127.9L406,25127.9C404.896,25127.9 404,25128.8 404,25129.9L404,25139.9C404,25141 404.896,25141.9 406,25141.9L410,25141.9C411.104,25141.9 412,25141 412,25139.9L412,25129.9Z"/>
        </clipPath>
        <g clip-path="url(#_clip2)">
            <g transform="matrix(0.462196,-0.480437,1.26294,1.21499,-31531.1,-5195.85)">
                <path d="M435,25128.3C435,25128.1 434.664,25128 434.25,25128L432.75,25128C432.336,25128 432,25128.1 432,25128.3L432,25143.7C432,25143.9 432.336,25144 432.75,25144L434.25,25144C434.664,25144 435,25143.9 435,25143.7L435,25128.3Z" style="fill:rgb(239,239,239);fill-opacity:0;"/>
            </g>
        </g>
    </g>
    <defs>
        <linearGradient id="_Linear1" x1="0" y1="0" x2="1" y2="0" gradientUnits="userSpaceOnUse" gradientTransform="matrix(9.79717e-16,16,-16,9.79717e-16,418,25126)"><stop offset="0" style="stop-color:rgb(41,41,41);stop-opacity:1"/><stop offset="1" style="stop-color:rgb(51,51,51);stop-opacity:1"/></linearGradient>
    </defs>
</svg>
