<?xml version="1.0" encoding="UTF-8" standalone="no"?>
<!DOCTYPE svg PUBLIC "-//W3C//DTD SVG 1.1//EN" "http://www.w3.org/Graphics/SVG/1.1/DTD/svg11.dtd">
<svg width="100%" height="100%" viewBox="0 0 28 42" version="1.1" xmlns="http://www.w3.org/2000/svg" xmlns:xlink="http://www.w3.org/1999/xlink" xml:space="preserve" xmlns:serif="http://www.serif.com/" style="fill-rule:evenodd;clip-rule:evenodd;stroke-linejoin:round;stroke-miterlimit:2;">
    <g transform="matrix(1,0,0,1,-11.0011,-4.0011)">
        <g transform="matrix(6.12323e-17,-1,1,6.12323e-17,-0.00109688,50.0011)">
            <path d="M28,39C27.848,39 27.695,38.965 27.559,38.895C27.215,38.727 27,38.383 27,38L27,30L5,30C4.449,30 4,29.555 4,29L4,21C4,20.449 4.449,20 5,20L27,20L27,12C27,11.621 27.215,11.273 27.559,11.105C27.898,10.938 28.305,10.977 28.609,11.207L45.609,24.207C45.855,24.395 46,24.688 46,25C46,25.313 45.855,25.605 45.605,25.793L28.605,38.793C28.43,38.93 28.215,39 28,39Z" style="fill:white;fill-rule:nonzero;"/>
        </g>
    </g>
</svg>
