<svg xmlns="http://www.w3.org/2000/svg" xmlns:xlink="http://www.w3.org/1999/xlink" viewBox="0,0,256,256" width="50px" height="50px" fill-rule="nonzero"><g fill="#ffffff" fill-rule="nonzero" stroke="none" stroke-width="1" stroke-linecap="butt" stroke-linejoin="miter" stroke-miterlimit="10" stroke-dasharray="" stroke-dashoffset="0" font-family="none" font-weight="none" font-size="none" text-anchor="none" style="mix-blend-mode: normal"><g transform="scale(5.12,5.12)"><path d="M15,3c-0.55078,0 -1,0.44922 -1,1c0,0.55078 0.44922,1 1,1c0.55078,0 1,-0.44922 1,-1c0,-0.55078 -0.44922,-1 -1,-1zM35,3c-0.55078,0 -1,0.44922 -1,1c0,0.55078 0.44922,1 1,1c0.55078,0 1,-0.44922 1,-1c0,-0.55078 -0.44922,-1 -1,-1zM15,6c-0.55078,0 -1,0.44922 -1,1c0,0.55078 0.44922,1 1,1c0.55078,0 1,-0.44922 1,-1c0,-0.55078 -0.44922,-1 -1,-1zM35,6c-0.55078,0 -1,0.44922 -1,1c0,0.55078 0.44922,1 1,1c0.55078,0 1,-0.44922 1,-1c0,-0.55078 -0.44922,-1 -1,-1zM45.84375,6c-0.39844,0.0625 -0.71875,0.35938 -0.8125,0.75c0,0 -0.58594,2.23828 -1.25,4.46875c-0.33203,1.11328 -0.67187,2.22656 -0.96875,3.03125c-0.05469,0.15234 -0.10547,0.21484 -0.15625,0.34375c-0.13281,-0.11719 -0.25391,-0.20703 -0.40625,-0.34375c-0.28906,-0.25391 -0.59766,-0.51562 -0.9375,-0.75c-0.33984,-0.23437 -0.70703,-0.5 -1.3125,-0.5c-0.80469,0 -1.11719,0.43359 -1.4375,0.78125c-0.32031,0.34766 -0.62891,0.74609 -0.90625,1.125c-0.27734,0.37891 -0.52344,0.75 -0.71875,0.96875c-0.04297,0.05078 -0.05859,0.03906 -0.09375,0.0625c-0.11719,-0.03516 -0.35156,-0.10156 -0.75,-0.375c-0.48047,-0.32812 -1.0625,-0.81641 -1.625,-1.3125c-0.5625,-0.49609 -1.11719,-0.99219 -1.65625,-1.40625c-0.53906,-0.41406 -0.95703,-0.84375 -1.8125,-0.84375c-0.67969,0 -0.83203,0.25781 -1.09375,0.46875c-0.26172,0.21094 -0.52344,0.48438 -0.8125,0.78125c-0.57812,0.59375 -1.25781,1.34375 -1.90625,2.09375c-0.64844,0.75 -1.27734,1.49609 -1.78125,2.03125c-0.23828,0.25391 -0.45312,0.44141 -0.59375,0.5625c-0.125,-0.04297 -0.5625,-0.16797 -1.0625,-0.375c-0.29297,-0.12109 -0.57422,-0.23828 -0.84375,-0.34375c-0.26953,-0.10547 -0.41406,-0.21875 -0.90625,-0.21875c-0.44141,0 -0.52344,0.08203 -0.6875,0.15625c-0.16406,0.07422 -0.3125,0.17969 -0.5,0.28125c-0.375,0.19922 -0.81641,0.4375 -1.25,0.6875c-0.43359,0.25 -0.88281,0.48438 -1.21875,0.65625c-0.15625,0.08203 -0.28516,0.18359 -0.375,0.21875c0.04297,0 0.03125,0.00391 -0.09375,-0.03125c-0.16016,-0.04687 -0.39062,-0.12891 -0.65625,-0.21875c-0.52734,-0.18359 -1.19531,-0.4375 -1.875,-0.6875c-0.67969,-0.25 -1.37891,-0.49609 -1.9375,-0.6875c-0.28125,-0.09766 -0.50391,-0.1875 -0.71875,-0.25c-0.21484,-0.0625 -0.31641,-0.125 -0.6875,-0.125c-0.51953,0 -0.69922,0.20313 -0.875,0.34375c-0.17578,0.14063 -0.32422,0.30469 -0.46875,0.46875c-0.28516,0.32422 -0.58594,0.69141 -0.875,1.0625c-0.28906,0.37109 -0.5625,0.74609 -0.78125,0.96875c-0.08203,0.08594 -0.13672,0.10156 -0.1875,0.125c-0.10156,-0.01562 -0.17578,-0.03516 -0.40625,-0.09375c-0.33203,-0.08594 -0.74609,-0.21875 -1.15625,-0.34375c-0.41016,-0.125 -0.81641,-0.24219 -1.1875,-0.34375c-0.37109,-0.10156 -0.64062,-0.1875 -1.0625,-0.1875c-0.47266,0 -0.64844,0.15234 -0.84375,0.28125c-0.19531,0.12891 -0.38281,0.27734 -0.5625,0.4375c-0.35937,0.32422 -0.71484,0.73438 -1.0625,1.125c-0.69531,0.77734 -1.3125,1.53125 -1.3125,1.53125c-0.34375,0.42969 -0.27734,1.0625 0.15625,1.40625c0.42969,0.34375 1.0625,0.27734 1.40625,-0.15625c0,0 0.57422,-0.74609 1.21875,-1.46875c0.32422,-0.35937 0.67188,-0.69922 0.9375,-0.9375c0.09375,-0.08594 0.15625,-0.14062 0.21875,-0.1875c0.07031,0.01563 0.14844,0.03125 0.375,0.09375c0.32031,0.08594 0.71094,0.21875 1.125,0.34375c0.41406,0.125 0.85938,0.24219 1.25,0.34375c0.39063,0.10156 0.68359,0.1875 1.09375,0.1875c0.84766,0 1.10938,-0.44141 1.4375,-0.78125c0.32813,-0.33984 0.64063,-0.71484 0.9375,-1.09375c0.29688,-0.37891 0.57422,-0.76172 0.78125,-1c0.03125,-0.03516 0.03516,-0.03516 0.0625,-0.0625c0.15234,0.04688 0.33594,0.10938 0.5625,0.1875c0.52734,0.18359 1.19531,0.4375 1.875,0.6875c0.67969,0.25 1.34375,0.49609 1.90625,0.6875c0.28125,0.09766 0.53516,0.1875 0.75,0.25c0.21484,0.0625 0.32422,0.125 0.6875,0.125c0.36328,0 0.50391,-0.08203 0.6875,-0.15625c0.18359,-0.07422 0.36328,-0.14844 0.5625,-0.25c0.39844,-0.20312 0.87109,-0.46875 1.3125,-0.71875c0.44141,-0.25 0.85938,-0.51172 1.1875,-0.6875c0.13672,-0.07422 0.23047,-0.11719 0.3125,-0.15625c0.00781,0.00781 -0.01953,0.00781 0.125,0.0625c0.21484,0.08203 0.50391,0.21484 0.8125,0.34375c0.61719,0.25781 1.17969,0.5625 2,0.5625c0.37891,0 0.53906,-0.12891 0.6875,-0.21875c0.14844,-0.08984 0.28516,-0.17578 0.40625,-0.28125c0.24609,-0.20703 0.47266,-0.45312 0.75,-0.75c0.55469,-0.58984 1.22656,-1.34375 1.875,-2.09375c0.64844,-0.75 1.26953,-1.5 1.78125,-2.03125c0.23828,-0.24609 0.44922,-0.44141 0.59375,-0.5625c-0.05078,0.02344 0.12891,0.05859 0.5,0.34375c0.4375,0.33594 0.98438,0.83984 1.5625,1.34375c0.33984,0.29688 0.70313,0.59375 1.0625,0.875c0.10156,0.12891 0.25391,0.21484 0.40625,0.28125c0.12109,0.08984 0.22266,0.19922 0.34375,0.28125c0.61328,0.42188 1.21484,0.8125 2.03125,0.8125c0.83984,0 1.09766,-0.46875 1.40625,-0.8125c0.30859,-0.34375 0.60156,-0.72266 0.875,-1.09375c0.27344,-0.37109 0.55078,-0.72266 0.75,-0.9375c0.04688,-0.05078 0.05859,-0.03906 0.09375,-0.0625c0.03516,0.01953 -0.01172,0 0.03125,0.03125c0.20313,0.14063 0.47266,0.37891 0.75,0.625c0.27734,0.24609 0.57813,0.49219 0.875,0.71875c0.29688,0.22656 0.53516,0.53125 1.21875,0.53125c0.62891,0 0.8125,-0.3125 0.9375,-0.46875c0.125,-0.15625 0.17188,-0.3125 0.25,-0.46875c0.16016,-0.3125 0.33594,-0.68359 0.5,-1.125c0.32422,-0.88281 0.66016,-2.01953 1,-3.15625c0.67578,-2.26953 1.28125,-4.53125 1.28125,-4.53125c0.08984,-0.32812 0.00781,-0.67969 -0.22266,-0.93359c-0.22656,-0.25 -0.56641,-0.37109 -0.90234,-0.31641zM15,9c-0.55078,0 -1,0.44922 -1,1c0,0.55078 0.44922,1 1,1c0.55078,0 1,-0.44922 1,-1c0,-0.55078 -0.44922,-1 -1,-1zM35,9c-0.55078,0 -1,0.44922 -1,1c0,0.55078 0.44922,1 1,1c0.55078,0 1,-0.44922 1,-1c0,-0.55078 -0.44922,-1 -1,-1zM15,12c-0.55078,0 -1,0.44922 -1,1c0,0.55078 0.44922,1 1,1c0.55078,0 1,-0.44922 1,-1c0,-0.55078 -0.44922,-1 -1,-1zM35,12c-0.55078,0 -1,0.44922 -1,1c0,0.55078 0.44922,1 1,1c0.55078,0 1,-0.44922 1,-1c0,-0.55078 -0.44922,-1 -1,-1zM15,15c-0.55078,0 -1,0.44922 -1,1c0,0.55078 0.44922,1 1,1c0.55078,0 1,-0.44922 1,-1c0,-0.55078 -0.44922,-1 -1,-1zM35,18c-0.55078,0 -1,0.44922 -1,1c0,0.55078 0.44922,1 1,1c0.55078,0 1,-0.44922 1,-1c0,-0.55078 -0.44922,-1 -1,-1zM15,21c-0.55078,0 -1,0.44922 -1,1c0,0.55078 0.44922,1 1,1c0.55078,0 1,-0.44922 1,-1c0,-0.55078 -0.44922,-1 -1,-1zM35,21c-0.55078,0 -1,0.44922 -1,1c0,0.55078 0.44922,1 1,1c0.55078,0 1,-0.44922 1,-1c0,-0.55078 -0.44922,-1 -1,-1zM15,24c-0.55078,0 -1,0.44922 -1,1c0,0.55078 0.44922,1 1,1c0.55078,0 1,-0.44922 1,-1c0,-0.55078 -0.44922,-1 -1,-1zM35,24c-0.55078,0 -1,0.44922 -1,1c0,0.55078 0.44922,1 1,1c0.55078,0 1,-0.44922 1,-1c0,-0.55078 -0.44922,-1 -1,-1zM15,27c-0.55078,0 -1,0.44922 -1,1c0,0.55078 0.44922,1 1,1c0.55078,0 1,-0.44922 1,-1c0,-0.55078 -0.44922,-1 -1,-1zM35,27c-0.55078,0 -1,0.44922 -1,1c0,0.55078 0.44922,1 1,1c0.55078,0 1,-0.44922 1,-1c0,-0.55078 -0.44922,-1 -1,-1zM15,30c-0.55078,0 -1,0.44922 -1,1c0,0.55078 0.44922,1 1,1c0.55078,0 1,-0.44922 1,-1c0,-0.55078 -0.44922,-1 -1,-1zM35,30c-0.55078,0 -1,0.44922 -1,1c0,0.55078 0.44922,1 1,1c0.55078,0 1,-0.44922 1,-1c0,-0.55078 -0.44922,-1 -1,-1zM15,33c-0.55078,0 -1,0.44922 -1,1c0,0.55078 0.44922,1 1,1c0.55078,0 1,-0.44922 1,-1c0,-0.55078 -0.44922,-1 -1,-1zM35,33c-0.55078,0 -1,0.44922 -1,1c0,0.55078 0.44922,1 1,1c0.55078,0 1,-0.44922 1,-1c0,-0.55078 -0.44922,-1 -1,-1zM15,36c-0.55078,0 -1,0.44922 -1,1c0,0.55078 0.44922,1 1,1c0.55078,0 1,-0.44922 1,-1c0,-0.55078 -0.44922,-1 -1,-1zM35,36c-0.55078,0 -1,0.44922 -1,1c0,0.55078 0.44922,1 1,1c0.55078,0 1,-0.44922 1,-1c0,-0.55078 -0.44922,-1 -1,-1zM15,39c-0.55078,0 -1,0.44922 -1,1c0,0.55078 0.44922,1 1,1c0.55078,0 1,-0.44922 1,-1c0,-0.55078 -0.44922,-1 -1,-1zM35,39c-0.55078,0 -1,0.44922 -1,1c0,0.55078 0.44922,1 1,1c0.55078,0 1,-0.44922 1,-1c0,-0.55078 -0.44922,-1 -1,-1zM15,42c-0.55078,0 -1,0.44922 -1,1c0,0.55078 0.44922,1 1,1c0.55078,0 1,-0.44922 1,-1c0,-0.55078 -0.44922,-1 -1,-1zM35,42c-0.55078,0 -1,0.44922 -1,1c0,0.55078 0.44922,1 1,1c0.55078,0 1,-0.44922 1,-1c0,-0.55078 -0.44922,-1 -1,-1zM15,45c-0.55078,0 -1,0.44922 -1,1h-11c-0.03125,0 -0.0625,0 -0.09375,0c-0.03125,0 -0.0625,0 -0.09375,0c-0.55078,0.05078 -0.95703,0.54297 -0.90625,1.09375c0.05078,0.55078 0.54297,0.95703 1.09375,0.90625h44c0.35938,0.00391 0.69531,-0.18359 0.87891,-0.49609c0.17969,-0.3125 0.17969,-0.69531 0,-1.00781c-0.18359,-0.3125 -0.51953,-0.5 -0.87891,-0.49609h-11c0,-0.55078 -0.44922,-1 -1,-1c-0.55078,0 -1,0.44922 -1,1h-18c0,-0.55078 -0.44922,-1 -1,-1z"></path></g></g></svg>